<svg width="24" height="24" viewBox="0 0 24 24" fill="none" xmlns="http://www.w3.org/2000/svg">
<path fill-rule="evenodd" clip-rule="evenodd" d="M21.3419 10.5201C21.7712 10.8713 22 11.3877 22 11.9999C22 12.6122 21.7712 13.1285 21.3418 13.4797C20.9287 13.8177 20.39 13.9542 19.843 13.9542L17.1668 13.9542L17.1354 14.0046C17.0085 14.2075 16.8268 14.4978 16.6074 14.8476C16.1685 15.5471 15.5784 16.4849 14.9738 17.4373C14.3694 18.3893 13.7494 19.3578 13.251 20.118C13.0021 20.4977 12.7817 20.8283 12.608 21.0798C12.4501 21.3084 12.2952 21.5252 12.1929 21.6278C11.9281 21.8932 11.55 21.9633 11.2884 21.9872C10.9967 22.0137 10.6807 21.9951 10.4047 21.9644C10.1245 21.9332 9.8629 21.8868 9.67296 21.8487C9.57745 21.8296 9.49873 21.8122 9.44325 21.7996C9.41548 21.7932 9.39345 21.788 9.37795 21.7843L9.35969 21.7798L9.35441 21.7785L9.35196 21.7779C9.35196 21.7779 9.35178 21.7779 9.48984 21.2243L9.35196 21.7779C9.05597 21.7038 8.87076 21.4088 8.93229 21.1092L10.4018 13.9542L5.82725 13.9542C5.82077 13.9631 5.81289 13.9743 5.80354 13.9884C5.78975 14.0091 5.77238 14.0375 5.75137 14.0718C5.66067 14.2201 5.50226 14.479 5.2723 14.7095C5.04403 14.9383 4.71643 15.0554 4.45033 15.12C4.16273 15.1899 3.84381 15.2226 3.54697 15.2226C3.25587 15.2226 2.94701 15.1912 2.69051 15.1089C2.56448 15.0685 2.41298 15.0039 2.28255 14.8938C2.14363 14.7766 1.99999 14.5789 1.99999 14.306C1.99999 14.1232 2.04181 13.8962 2.08452 13.6964C2.12969 13.4851 2.18914 13.2467 2.24558 13.0204L2.24704 13.0146C2.30519 12.7814 2.36014 12.5608 2.40085 12.3704C2.44441 12.1666 2.4601 12.0477 2.4601 11.9999C2.4601 11.9521 2.44441 11.8332 2.40085 11.6294C2.36014 11.439 2.30519 11.2184 2.24705 10.9853L2.24559 10.9794C2.18914 10.7531 2.12969 10.5147 2.08452 10.3034C2.04182 10.1036 2 9.87661 2 9.6938C2 9.42088 2.14363 9.22325 2.28255 9.10598C2.41298 8.99588 2.56449 8.93131 2.69051 8.89089C2.94701 8.80861 3.25587 8.77726 3.54698 8.77726C3.84382 8.77726 4.16273 8.80991 4.45034 8.8798C4.71644 8.94446 5.04403 9.06148 5.27231 9.29031C5.50226 9.52081 5.66067 9.77974 5.75138 9.92799C5.77238 9.96232 5.78975 9.99072 5.80354 10.0115C5.81289 10.0255 5.82077 10.0367 5.82725 10.0456L10.4019 10.0456L8.93231 2.89057C8.87079 2.59101 9.05581 2.29609 9.35181 2.22192L9.48987 2.7755C9.3518 2.22192 9.35181 2.22192 9.35181 2.22192L9.35443 2.22126L9.35971 2.21996L9.37797 2.21553C9.39347 2.2118 9.4155 2.2066 9.44327 2.20025C9.49876 2.18756 9.57747 2.17025 9.67299 2.1511C9.86292 2.11302 10.1245 2.06662 10.4047 2.03541C10.6807 2.00467 10.9967 1.98606 11.2884 2.01264C11.55 2.03648 11.9282 2.1066 12.1929 2.37201C12.2953 2.47458 12.4501 2.6914 12.608 2.92002C12.7817 3.17153 13.0021 3.50205 13.2511 3.88182C13.7494 4.64203 14.3695 5.61049 14.9738 6.56247C15.5784 7.51488 16.1685 8.45266 16.6074 9.1522C16.8268 9.502 17.0085 9.79233 17.1354 9.99523L17.1668 10.0456L19.8429 10.0456C20.3901 10.0456 20.9287 10.1821 21.3419 10.5201ZM15.8228 10.0456C15.7665 9.95567 15.7066 9.86017 15.6436 9.75975C15.2054 9.06122 14.6165 8.12529 14.0133 7.17518C13.4099 6.22463 12.7934 5.26173 12.2996 4.50857C12.0525 4.13164 11.8379 3.80998 11.672 3.56964C11.5888 3.44922 11.5199 3.3523 11.4665 3.28038C11.4315 3.23318 11.4092 3.20517 11.3975 3.19082C11.3835 3.18577 11.325 3.16194 11.1853 3.14921C11.0025 3.13254 10.7721 3.14277 10.5305 3.16968C10.4024 3.18394 10.2773 3.20217 10.1626 3.22128L11.6578 10.5012C11.6923 10.6692 11.6496 10.8438 11.5415 10.9768C11.4334 11.1097 11.2713 11.1869 11.1002 11.1869L5.79001 11.1869C5.5695 11.1869 5.36681 11.1283 5.19037 11.0044C5.02988 10.8918 4.92493 10.7478 4.85625 10.6445C4.81083 10.5762 4.77393 10.5164 4.74011 10.4617C4.65724 10.3274 4.59291 10.2232 4.46727 10.0973L4.46852 10.0986C4.46852 10.0986 4.45079 10.0837 4.40217 10.0614C4.34869 10.0369 4.27509 10.0115 4.18211 9.98892C3.99522 9.94351 3.76776 9.91851 3.54698 9.91851C3.4003 9.91851 3.27312 9.92954 3.17374 9.94628C3.18057 9.98191 3.18854 10.0212 3.19775 10.0643C3.23846 10.2547 3.2934 10.4753 3.35155 10.7085L3.35305 10.7145C3.40949 10.9408 3.46891 11.1791 3.51407 11.3903C3.55678 11.5901 3.5986 11.8171 3.5986 11.9999C3.5986 12.1827 3.55678 12.4097 3.51407 12.6095C3.46891 12.8208 3.40947 13.0591 3.35303 13.2854L3.35155 13.2913C3.2934 13.5245 3.23846 13.7451 3.19775 13.9355C3.18854 13.9786 3.18057 14.0179 3.17374 14.0535C3.27312 14.0703 3.40029 14.0813 3.54697 14.0813C3.76775 14.0813 3.99521 14.0563 4.1821 14.0109C4.27508 13.9883 4.34869 13.9629 4.40216 13.9384C4.45078 13.9161 4.46852 13.9013 4.46852 13.9013L4.46727 13.9025C4.5929 13.7766 4.65723 13.6724 4.7401 13.5382C4.77392 13.4834 4.81083 13.4236 4.85625 13.3553C4.92492 13.2521 5.02988 13.108 5.19037 12.9954C5.36681 12.8716 5.56949 12.8129 5.79001 12.8129L13.9759 12.8129C14.2903 12.8129 14.5452 13.0684 14.5452 13.3836C14.5452 13.6987 14.2903 13.9542 13.9759 13.9542L11.5642 13.9542L10.1626 20.7785C10.2773 20.7976 10.4024 20.8159 10.5304 20.8301C10.7721 20.857 11.0024 20.8673 11.1853 20.8506C11.325 20.8379 11.3835 20.814 11.3974 20.809C11.4091 20.7946 11.4314 20.7666 11.4665 20.7194C11.5199 20.6475 11.5888 20.5506 11.6719 20.4302C11.8379 20.1898 12.0525 19.8682 12.2996 19.4912C12.7933 18.7381 13.4098 17.7752 14.0133 16.8246C14.6164 15.8745 15.2054 14.9386 15.6436 14.24C15.8627 13.8908 16.0441 13.601 16.1706 13.3985L16.3687 13.0814C16.3687 13.0814 16.3689 13.0811 16.8516 13.3836L16.3687 13.0814C16.4727 12.9146 16.6553 12.8129 16.8516 12.8129L19.8429 12.8129C20.2161 12.8129 20.4714 12.7188 20.622 12.5955C20.7565 12.4855 20.8615 12.3101 20.8615 11.9999C20.8615 11.6898 20.7565 11.5143 20.622 11.4043C20.4713 11.281 20.216 11.1868 19.843 11.1868L13.9759 11.1869C13.6615 11.1869 13.4067 10.9314 13.4067 10.6162C13.4067 10.3011 13.6615 10.0456 13.9759 10.0456L15.8228 10.0456Z" fill="white"/>
<path fill-rule="evenodd" clip-rule="evenodd" d="M17.2201 14.0576C17.0933 14.2605 16.9116 14.5509 16.6921 14.9007C16.2532 15.6004 15.663 16.5383 15.0582 17.4909C14.4538 18.443 13.8334 19.412 13.3347 20.1728C13.0855 20.5528 12.8647 20.8841 12.6903 21.1366C12.5343 21.3625 12.3738 21.588 12.2637 21.6984C11.9727 21.9901 11.5635 22.0625 11.2974 22.0867C10.9962 22.1142 10.6727 22.0949 10.3936 22.0638C10.1096 22.0321 9.84504 21.9852 9.65331 21.9468C9.55679 21.9274 9.4772 21.9099 9.42096 21.897C9.39281 21.8906 9.37042 21.8853 9.35459 21.8815L9.33611 21.877L9.33046 21.8756L9.3278 21.875L9.35196 21.7779C9.3519 21.7782 9.35203 21.7777 9.35196 21.7779L9.3278 21.875C8.97971 21.7877 8.76206 21.441 8.83434 21.0891L10.2792 14.0542L5.87997 14.0542C5.86854 14.072 5.85438 14.0951 5.83667 14.124L5.8357 14.1256C5.7448 14.2742 5.58139 14.5413 5.3431 14.7801C5.09497 15.0289 4.74524 15.1513 4.47395 15.2172C4.17748 15.2892 3.85051 15.3226 3.54697 15.3226C3.25017 15.3226 2.92997 15.2908 2.65996 15.2042C2.52754 15.1617 2.36237 15.0921 2.21804 14.9703C2.06408 14.8403 1.89999 14.6169 1.89999 14.306C1.89999 14.1115 1.94407 13.8751 1.98673 13.6755C2.03225 13.4626 2.09203 13.2229 2.14829 12.9973L2.15002 12.9904C2.20828 12.7567 2.26277 12.5379 2.30306 12.3495C2.34675 12.1451 2.3601 12.0358 2.3601 11.9999C2.3601 11.964 2.34675 11.8547 2.30306 11.6504L2.40085 11.6294C2.44441 11.8332 2.4601 11.9521 2.4601 11.9999C2.4601 12.0477 2.44441 12.1666 2.40085 12.3704C2.36014 12.5608 2.30519 12.7814 2.24704 13.0146L2.24558 13.0204C2.18914 13.2467 2.12969 13.4851 2.08452 13.6964C2.04181 13.8962 1.99999 14.1232 1.99999 14.306C1.99999 14.5789 2.14363 14.7766 2.28255 14.8938C2.41298 15.0039 2.56448 15.0685 2.69051 15.1089C2.94701 15.1912 3.25587 15.2226 3.54697 15.2226C3.84381 15.2226 4.16273 15.1899 4.45033 15.12C4.71643 15.0554 5.04403 14.9383 5.2723 14.7095C5.50226 14.479 5.66067 14.2201 5.75137 14.0718C5.77238 14.0375 5.78975 14.0091 5.80354 13.9884C5.81289 13.9743 5.82077 13.9631 5.82725 13.9542L10.4018 13.9542L8.93229 21.1092C8.87764 21.3753 9.01765 21.6378 9.25706 21.7451C9.25705 21.7451 9.25707 21.7451 9.25706 21.7451C9.28718 21.7586 9.31889 21.7696 9.35196 21.7779L9.35441 21.7785L9.35969 21.7798L9.37795 21.7843C9.39345 21.788 9.41548 21.7932 9.44325 21.7996C9.44523 21.8 9.44724 21.8005 9.44928 21.8009C9.50438 21.8135 9.58086 21.8302 9.67296 21.8487C9.8629 21.8868 10.1245 21.9332 10.4047 21.9644C10.6807 21.9951 10.9967 22.0137 11.2884 21.9872C11.55 21.9633 11.9281 21.8932 12.1929 21.6278C12.2952 21.5252 12.4501 21.3084 12.608 21.0798C12.7817 20.8283 13.0021 20.4977 13.251 20.118C13.7494 19.3578 14.3694 18.3893 14.9738 17.4373C15.5784 16.4849 16.1685 15.5471 16.6074 14.8476C16.8268 14.4978 17.0085 14.2075 17.1354 14.0046L17.1668 13.9542L19.843 13.9542C20.39 13.9542 20.9287 13.8177 21.3418 13.4797C21.7712 13.1285 22 12.6122 22 11.9999C22 11.3877 21.7712 10.8713 21.3419 10.5201C20.9287 10.1821 20.3901 10.0456 19.8429 10.0456L17.1668 10.0456L17.1354 9.99523C17.0085 9.79233 16.8268 9.502 16.6074 9.1522C16.1685 8.45266 15.5784 7.51488 14.9738 6.56247C14.3695 5.61049 13.7494 4.64203 13.2511 3.88182C13.0021 3.50205 12.7817 3.17153 12.608 2.92002C12.4501 2.6914 12.2953 2.47458 12.1929 2.37201C11.9282 2.1066 11.55 2.03648 11.2884 2.01264C10.9967 1.98606 10.6807 2.00467 10.4047 2.03541C10.1245 2.06662 9.86292 2.11302 9.67299 2.1511C9.58078 2.16959 9.50424 2.18636 9.44913 2.19891C9.44893 2.19896 9.44933 2.19886 9.44913 2.19891C9.44735 2.19932 9.445 2.19985 9.44327 2.20025C9.4155 2.2066 9.39347 2.2118 9.37797 2.21553L9.35971 2.21996L9.35443 2.22126L9.35181 2.22192C9.31873 2.23021 9.28704 2.24125 9.25693 2.25475C9.01754 2.36206 8.87766 2.62448 8.93231 2.89057L10.4019 10.0456L5.82725 10.0456C5.82077 10.0367 5.81289 10.0255 5.80354 10.0115C5.78975 9.99072 5.77238 9.96232 5.75138 9.92799C5.66067 9.77974 5.50226 9.52081 5.27231 9.29031C5.04403 9.06148 4.71644 8.94446 4.45034 8.8798C4.16273 8.80991 3.84382 8.77726 3.54698 8.77726C3.25587 8.77726 2.94701 8.80861 2.69051 8.89089C2.56449 8.93131 2.41298 8.99588 2.28255 9.10598C2.14363 9.22325 2 9.42088 2 9.6938C2 9.87661 2.04182 10.1036 2.08452 10.3034C2.12969 10.5147 2.18914 10.7531 2.24559 10.9794L2.14856 11.0036L2.14831 11.0026C2.09204 10.777 2.03226 10.5373 1.98673 10.3243C1.94407 10.1247 1.9 9.88835 1.9 9.6938C1.9 9.38289 2.06408 9.15954 2.21805 9.02957C2.36237 8.90774 2.52754 8.83814 2.65996 8.79566C2.92997 8.70905 3.25017 8.67726 3.54698 8.67726C3.85051 8.67726 4.17748 8.71058 4.47395 8.78263C4.74524 8.84855 5.09498 8.97095 5.34311 9.21968C5.5814 9.45855 5.74481 9.72565 5.83571 9.87422L5.83668 9.8758C5.85439 9.90475 5.86854 9.92786 5.87997 9.94562L10.2792 9.94561L8.83436 2.91069C8.7621 2.55886 8.97936 2.21216 9.3275 2.12492L9.3372 2.16363C9.33717 2.16362 9.33723 2.16365 9.3372 2.16363L9.3275 2.12492L9.33026 2.12423L9.33575 2.12287L9.35439 2.11835C9.37022 2.11455 9.39283 2.1092 9.42098 2.10276C9.47722 2.08991 9.55682 2.0724 9.65333 2.05305C9.84506 2.01461 10.1096 1.96766 10.3937 1.93602C10.6727 1.90494 10.9962 1.8856 11.2975 1.91305C11.5635 1.9373 11.9727 2.00965 12.2637 2.30138C12.3739 2.41178 12.5343 2.63734 12.6903 2.86319C12.8647 3.11568 13.0856 3.44698 13.3347 3.82699C13.8335 4.58782 14.4538 5.55677 15.0582 6.50887C15.663 7.46149 16.2532 8.39942 16.6921 9.09905C16.9116 9.44891 17.0933 9.73928 17.2202 9.94222L17.2223 9.9456L19.8429 9.94557C20.4054 9.94557 20.9689 10.0858 21.4052 10.4427C21.8605 10.8152 22.1 11.3614 22.1 11.9999C22.1 12.6385 21.8605 13.1847 21.4051 13.5572C20.9689 13.914 20.4053 14.0542 19.843 14.0542L17.2223 14.0542L17.2201 14.0576ZM9.48984 21.2243C9.42905 21.4681 9.39512 21.6045 9.37612 21.6809C9.35197 21.7779 9.35196 21.7779 9.35196 21.7779L9.48984 21.2243ZM2.24559 10.9794L2.14856 11.0036L2.15002 11.0095C2.20828 11.2431 2.26277 11.4619 2.30306 11.6504L2.40085 11.6294C2.36014 11.439 2.30519 11.2184 2.24705 10.9853L2.24559 10.9794ZM16.4291 13.0012C16.536 12.8826 16.6891 12.8129 16.8516 12.8129L19.8429 12.8129C20.2161 12.8129 20.4714 12.7188 20.622 12.5955C20.7565 12.4855 20.8615 12.3101 20.8615 11.9999C20.8615 11.6898 20.7565 11.5143 20.622 11.4043C20.4713 11.281 20.216 11.1868 19.843 11.1868L13.9759 11.1869C13.6615 11.1869 13.4067 10.9314 13.4067 10.6162C13.4067 10.3011 13.6615 10.0456 13.9759 10.0456L15.8228 10.0456L15.6436 9.75975C15.2054 9.06122 14.6165 8.12529 14.0133 7.17518C13.4099 6.22463 12.7934 5.26173 12.2996 4.50857C12.0525 4.13164 11.8379 3.80998 11.672 3.56964C11.5888 3.44922 11.5199 3.3523 11.4665 3.28038C11.4315 3.23318 11.4092 3.20517 11.3975 3.19082C11.3968 3.19056 11.3959 3.19025 11.395 3.18989C11.3773 3.18334 11.3178 3.16128 11.1853 3.14921C11.0025 3.13254 10.7721 3.14277 10.5305 3.16968C10.4383 3.17994 10.3477 3.19225 10.2615 3.20547C10.2278 3.21063 10.1948 3.21592 10.1626 3.22128L11.6578 10.5012C11.6923 10.6692 11.6496 10.8438 11.5415 10.9768C11.4334 11.1097 11.2713 11.1869 11.1002 11.1869L5.79001 11.1869C5.5695 11.1869 5.36681 11.1283 5.19037 11.0044C5.02988 10.8918 4.92493 10.7478 4.85625 10.6445C4.81083 10.5762 4.77393 10.5164 4.74011 10.4617C4.67404 10.3546 4.61975 10.2667 4.53679 10.1716C4.51604 10.1479 4.49349 10.1236 4.46852 10.0986L4.46727 10.0973C4.46222 10.0935 4.44302 10.0801 4.40217 10.0614C4.39469 10.058 4.38681 10.0546 4.37855 10.0511C4.32772 10.0299 4.26209 10.0084 4.18211 9.98892C3.99522 9.94351 3.76776 9.91851 3.54698 9.91851C3.44535 9.91851 3.35309 9.9238 3.27295 9.93262C3.23742 9.93653 3.20427 9.94114 3.17374 9.94628C3.17951 9.97634 3.18608 10.009 3.19352 10.0444C3.1949 10.0509 3.19631 10.0576 3.19775 10.0643C3.23846 10.2547 3.2934 10.4753 3.35155 10.7085L3.35305 10.7145C3.40949 10.9408 3.46891 11.1791 3.51407 11.3903C3.55678 11.5901 3.5986 11.8171 3.5986 11.9999C3.5986 12.1827 3.55678 12.4097 3.51407 12.6095C3.46891 12.8208 3.40947 13.0591 3.35303 13.2854L3.35155 13.2913C3.2934 13.5245 3.23846 13.7451 3.19775 13.9355C3.19631 13.9423 3.1949 13.9489 3.19352 13.9555C3.18608 13.9908 3.1795 14.0235 3.17374 14.0535C3.20426 14.0587 3.23741 14.0633 3.27294 14.0672C3.35309 14.076 3.44535 14.0813 3.54697 14.0813C3.76775 14.0813 3.99521 14.0563 4.1821 14.0109C4.26208 13.9915 4.32772 13.9699 4.37854 13.9487C4.38681 13.9453 4.39468 13.9418 4.40216 13.9384C4.44301 13.9197 4.46222 13.9064 4.46727 13.9025C4.46823 13.9018 4.46852 13.9013 4.46852 13.9013L4.46727 13.9025C4.46823 13.9018 4.46852 13.9013 4.46852 13.9013C4.49349 13.8762 4.51604 13.852 4.53678 13.8282C4.61975 13.7331 4.67403 13.6452 4.7401 13.5382C4.77392 13.4834 4.81083 13.4236 4.85625 13.3553C4.92492 13.2521 5.02988 13.108 5.19037 12.9954C5.36681 12.8716 5.56949 12.8129 5.79001 12.8129L13.9759 12.8129C14.2903 12.8129 14.5452 13.0684 14.5452 13.3836C14.5452 13.6987 14.2903 13.9542 13.9759 13.9542L11.5642 13.9542L10.1626 20.7785C10.1948 20.7839 10.2278 20.7892 10.2614 20.7943C10.3477 20.8075 10.4383 20.8199 10.5304 20.8301C10.7721 20.857 11.0024 20.8673 11.1853 20.8506C11.3178 20.8385 11.3773 20.8165 11.3949 20.8099C11.3959 20.8096 11.3967 20.8092 11.3974 20.809C11.4091 20.7946 11.4314 20.7666 11.4665 20.7194C11.5199 20.6475 11.5888 20.5506 11.6719 20.4302C11.8379 20.1898 12.0525 19.8682 12.2996 19.4912C12.7933 18.7381 13.4098 17.7752 14.0133 16.8246C14.6164 15.8745 15.2054 14.9386 15.6436 14.24C15.8627 13.8908 16.0441 13.601 16.1706 13.3985L16.3687 13.0814C16.369 13.0817 16.3694 13.0819 16.3697 13.0821C16.3696 13.082 16.3698 13.0822 16.3697 13.0821L16.8516 13.3836C16.6392 13.2505 16.5201 13.1761 16.4535 13.1345C16.3687 13.0815 16.3687 13.0814 16.3687 13.0814C16.369 13.081 16.3693 13.0805 16.3696 13.08C16.3873 13.0518 16.4072 13.0255 16.4291 13.0012C16.4291 13.0012 16.4291 13.0012 16.4291 13.0012ZM16.2838 13.0285C16.406 12.8325 16.6207 12.7129 16.8516 12.7129L19.8429 12.7129C20.2006 12.7129 20.431 12.6226 20.5587 12.5181C20.6675 12.4292 20.7615 12.2835 20.7615 11.9999C20.7615 11.7164 20.6675 11.5706 20.5587 11.4817C20.431 11.3772 20.2006 11.2868 19.843 11.2868L13.9759 11.2869C13.6061 11.2869 13.3067 10.9864 13.3067 10.6162C13.3067 10.2461 13.6061 9.9456 13.9759 9.9456L15.6421 9.9456L15.5589 9.81289C15.1207 9.11445 14.5319 8.17868 13.9289 7.22877C13.3255 6.27835 12.7093 5.31594 12.216 4.56339C11.969 4.18672 11.755 3.86583 11.5897 3.62646C11.5068 3.50649 11.4387 3.41062 11.3862 3.34001C11.3654 3.31202 11.3494 3.29113 11.3376 3.2761C11.3102 3.26805 11.2598 3.25641 11.1762 3.24879C11.003 3.23301 10.7801 3.24249 10.5415 3.26907C10.4527 3.27896 10.3652 3.29081 10.2816 3.30355L11.7557 10.481C11.7963 10.6784 11.7461 10.8836 11.6191 11.0398C11.492 11.1961 11.3015 11.2869 11.1002 11.2869L5.79001 11.2869C5.55095 11.2869 5.32778 11.223 5.13294 11.0863C4.95695 10.9628 4.84369 10.8062 4.77299 10.6999C4.72664 10.6302 4.689 10.5692 4.65526 10.5146C4.57433 10.3835 4.51563 10.2888 4.40346 10.175C4.40276 10.1745 4.40194 10.174 4.401 10.1734C4.39428 10.1693 4.38136 10.1619 4.36051 10.1523C4.31423 10.1311 4.24697 10.1076 4.15849 10.0861C3.98047 10.0428 3.76106 10.0185 3.54698 10.0185C3.45245 10.0185 3.36698 10.0233 3.29292 10.0311C3.29378 10.0351 3.29465 10.0392 3.29554 10.0434C3.33583 10.2319 3.39032 10.4507 3.44858 10.6843L3.45008 10.6903C3.50635 10.9159 3.56635 11.1565 3.61186 11.3694C3.65452 11.569 3.6986 11.8054 3.6986 11.9999C3.6986 12.1945 3.65452 12.4308 3.61186 12.6304C3.56635 12.8433 3.50659 13.0829 3.45033 13.3085L3.45006 13.3096L3.44858 13.3155C3.39032 13.5491 3.33582 13.768 3.29554 13.9564C3.29465 13.9606 3.29378 13.9647 3.29291 13.9688C3.36697 13.9766 3.45245 13.9813 3.54697 13.9813C3.76106 13.9813 3.98046 13.957 4.15849 13.9137C4.24696 13.8922 4.31422 13.8687 4.3605 13.8475C4.38136 13.8379 4.39427 13.8306 4.40099 13.8264C4.40193 13.8258 4.40275 13.8253 4.40346 13.8249C4.51562 13.711 4.57408 13.6167 4.65501 13.4856C4.68874 13.431 4.72663 13.3696 4.77299 13.2999C4.84369 13.1936 4.95695 13.037 5.13293 12.9135C5.32777 12.7768 5.55095 12.7129 5.79001 12.7129L13.9759 12.7129C14.3458 12.7129 14.6452 13.0134 14.6452 13.3836C14.6452 13.7537 14.3458 14.0542 13.9759 14.0542L11.6458 14.0542L10.2816 20.6962C10.3652 20.709 10.4527 20.7208 10.5415 20.7307C10.7801 20.7573 11.003 20.7668 11.1762 20.751C11.2598 20.7434 11.3102 20.7318 11.3376 20.7237C11.3494 20.7087 11.3654 20.6878 11.3862 20.6598C11.4387 20.5892 11.5068 20.4933 11.5897 20.3733C11.755 20.134 11.969 19.8131 12.216 19.4364C12.7093 18.6839 13.3255 17.7214 13.9289 16.771C14.5319 15.8211 15.1207 14.8853 15.5589 14.1869C15.778 13.8377 15.9593 13.548 16.0858 13.3455L16.2838 13.0285ZM4.40664 13.8227L4.40557 13.8236L4.40467 13.8243" fill="white"/>
</svg>
