<svg width="24" height="24" viewBox="0 0 24 24" fill="none" xmlns="http://www.w3.org/2000/svg">
<path fill-rule="evenodd" clip-rule="evenodd" d="M18.3653 2.09198C16.8745 1.79069 15.2658 2.22945 14.1092 3.4097C13.0367 4.5041 12.5899 5.99413 12.7659 7.41634C12.59 7.33946 12.3957 7.24769 12.1864 7.14763L12.1154 7.11367C11.7341 6.93116 11.2883 6.71778 10.933 6.62062C9.39379 6.19977 7.7765 6.20858 6.46521 7.01555C5.12954 7.83753 4.27539 9.3843 4.07129 11.6736C3.87313 13.8962 4.09728 15.9175 4.62934 17.4736C5.14686 18.9872 6.02531 20.2413 7.26525 20.5804C7.60103 20.6722 7.99182 20.697 8.33645 20.7188C8.38941 20.7222 8.44129 20.7255 8.49171 20.7289C8.90294 20.7571 9.32497 20.7974 9.77878 20.9215C10.2326 21.0456 10.6179 21.226 10.9879 21.4114C11.0333 21.4342 11.0798 21.4578 11.1273 21.4819C11.4365 21.6388 11.787 21.8167 12.1227 21.9085C13.3632 22.2477 14.7394 21.6093 15.9297 20.5622C17.1533 19.4857 18.338 17.8493 19.2555 15.8232C20.2006 13.7361 20.2183 11.9614 19.465 10.5692C18.7704 9.28561 17.4974 8.47311 16.0701 8.03031C16.6316 7.79542 17.1579 7.44537 17.6139 6.98008C18.7703 5.80006 19.1993 4.16009 18.9045 2.64111L18.8155 2.18297L18.3653 2.09198ZM7.175 8.20943C7.97629 7.71632 9.04344 7.61782 10.243 7.88514C9.70253 8.23253 9.28996 8.76291 9.06372 9.45345C8.94396 9.81897 9.13812 10.2141 9.4974 10.3359C9.85667 10.4578 10.245 10.2602 10.3648 9.89468C10.5295 9.39193 10.84 9.08671 11.2402 8.93039C11.6444 8.77253 12.1902 8.74959 12.8321 8.92939C12.8621 8.93853 12.8917 8.94713 12.921 8.95512C13.3373 9.06896 13.8783 9.11634 14.3236 9.15533L14.329 9.15581C14.8246 9.19921 15.2039 9.2332 15.4345 9.29625C16.7695 9.66127 17.7692 10.3284 18.2636 11.2421C18.7443 12.1306 18.835 13.4173 18.0099 15.2394C17.1571 17.1226 16.0802 18.5852 15.0327 19.5068C13.9517 20.4577 13.047 20.7164 12.4787 20.561C12.2861 20.5084 12.0755 20.4023 11.747 20.2368L11.594 20.1598C11.2043 19.9645 10.7218 19.7345 10.1347 19.574C9.54764 19.4135 9.01706 19.3664 8.58381 19.3368L8.41352 19.3253C8.04796 19.3011 7.81373 19.2855 7.62118 19.2329C7.05223 19.0773 6.39499 18.3908 5.92463 17.0152C5.46881 15.6821 5.2529 13.8657 5.4371 11.7996C5.61536 9.80017 6.32445 8.73287 7.175 8.20943Z" fill="white"/>
</svg>
