<svg width="24" height="24" viewBox="0 0 24 24" fill="none" xmlns="http://www.w3.org/2000/svg">
<path fill-rule="evenodd" clip-rule="evenodd" d="M14.7284 3.51977C12.9605 3.44479 11.0037 3.44479 9.23572 3.51977C8.82699 3.5371 8.4816 3.21981 8.46426 2.81108C8.44693 2.40235 8.76422 2.05695 9.17295 2.03962C10.9827 1.96287 12.9814 1.96287 14.7912 2.03962C15.1999 2.05695 15.5172 2.40234 15.4999 2.81108C15.4826 3.21981 15.1372 3.5371 14.7284 3.51977ZM4.18152 6.97899C4.16646 7.00101 4.12282 7.07074 4.06543 7.22289C3.99671 7.40504 3.92784 7.65186 3.86289 7.96236C3.75098 8.4974 3.6605 9.17352 3.59417 9.93871C3.92222 10.1839 4.37355 10.4138 4.92114 10.6204C5.61064 10.8805 6.39118 11.0812 7.13669 11.2329C7.87962 11.384 8.57207 11.4833 9.07957 11.5448C9.09223 11.5463 9.10478 11.5478 9.11721 11.5493C9.13081 11.2148 9.15232 10.8949 9.18153 10.6125C9.20759 10.3607 9.24142 10.1222 9.28578 9.92376C9.30782 9.82522 9.33595 9.72045 9.37351 9.62186C9.40426 9.54115 9.46991 9.38495 9.60249 9.25032C9.78561 9.06438 10.0268 8.98113 10.1565 8.94121C10.3196 8.89102 10.5043 8.85398 10.69 8.82601C11.064 8.76965 11.5128 8.73974 11.9524 8.73565C12.3914 8.73155 12.8471 8.75296 13.2335 8.80766C13.4256 8.83486 13.6191 8.87281 13.7926 8.92749C13.9421 8.97461 14.1782 9.06398 14.3617 9.25033C14.4879 9.37839 14.5565 9.5246 14.5937 9.6163C14.6355 9.7195 14.6665 9.82836 14.6905 9.9309C14.7386 10.1365 14.773 10.3793 14.7982 10.6322C14.8259 10.9113 14.8444 11.2248 14.8547 11.5512C14.8652 11.55 14.8758 11.5488 14.8864 11.5475C15.3937 11.4877 16.0859 11.3904 16.8284 11.2407C17.5736 11.0904 18.3535 10.8905 19.0422 10.6297C19.5908 10.422 20.0425 10.19 20.3703 9.94169C20.304 9.17528 20.2134 8.49809 20.1013 7.96236C20.0364 7.65185 19.9675 7.40504 19.8988 7.22289C19.8414 7.07075 19.7978 7.00101 19.7827 6.97899C19.7685 6.97042 19.7289 6.94759 19.6499 6.91583C19.5247 6.86554 19.3475 6.81125 19.1141 6.75671C18.6481 6.64787 18.0225 6.55274 17.2763 6.47503C15.7879 6.32001 13.8902 6.24132 11.9821 6.24131C10.074 6.24131 8.17635 6.32001 6.68796 6.47502C5.94178 6.55274 5.31614 6.64787 4.85016 6.75671C4.6167 6.81124 4.43952 6.86553 4.31436 6.91583C4.23534 6.94759 4.19578 6.97043 4.18152 6.97899ZM20.4714 11.616C20.1799 11.7669 19.8739 11.899 19.5668 12.0152C18.7761 12.3146 17.9114 12.5336 17.1213 12.6929C16.3286 12.8528 15.5948 12.9557 15.0599 13.0188C14.9853 13.0276 14.9145 13.0356 14.8478 13.0429C14.8334 13.4047 14.8098 13.7505 14.7771 14.051C14.7511 14.2906 14.7175 14.5181 14.6737 14.7083C14.6519 14.8028 14.6239 14.904 14.5866 14.9998C14.5557 15.0792 14.4907 15.2298 14.3617 15.3607C14.1786 15.5466 13.9375 15.6299 13.8078 15.6698C13.6447 15.72 13.4599 15.757 13.2743 15.785C12.9002 15.8414 12.4515 15.8713 12.0119 15.8754C11.5728 15.8795 11.1172 15.8581 10.7307 15.8034C10.5387 15.7762 10.3451 15.7382 10.1716 15.6835C10.0221 15.6364 9.786 15.547 9.60248 15.3607C9.48012 15.2364 9.41235 15.0957 9.37515 15.006C9.33363 14.9058 9.30285 14.8007 9.27901 14.7022C9.23125 14.505 9.19692 14.2731 9.17156 14.0324C9.14013 13.734 9.11969 13.3939 9.10895 13.0398C9.04361 13.0324 8.97431 13.0243 8.9014 13.0155C8.36689 12.9508 7.63355 12.8458 6.84138 12.6846C6.0518 12.524 5.18793 12.3045 4.39817 12.0065C4.09092 11.8906 3.78474 11.7591 3.49307 11.6091C3.43677 13.1139 3.46114 14.7334 3.56616 16.1387C3.63433 17.051 3.73519 17.8548 3.8645 18.4703C3.92928 18.7786 3.99789 19.0236 4.06627 19.2043C4.13183 19.3776 4.17927 19.443 4.18632 19.4528L4.187 19.4539C4.23444 19.502 4.3671 19.5944 4.64303 19.7014C4.90581 19.8033 5.24285 19.8975 5.64033 19.9819C6.4346 20.1507 7.40043 20.2665 8.3496 20.3446C9.29475 20.4224 10.2042 20.4615 10.8787 20.4811C11.009 20.4849 11.1304 20.4879 11.2414 20.4904L11.2414 17.8607C11.2414 17.4517 11.573 17.12 11.9821 17.12C12.3912 17.12 12.7229 17.4517 12.7229 17.8608L12.7229 20.4904C12.8339 20.4879 12.9552 20.4849 13.0855 20.4811C13.7601 20.4615 14.6695 20.4224 15.6146 20.3446C16.5638 20.2665 17.5297 20.1507 18.3239 19.9819C18.7214 19.8975 19.0584 19.8033 19.3212 19.7014C19.5972 19.5944 19.7299 19.502 19.7773 19.4538L19.7779 19.4528C19.785 19.443 19.8324 19.3776 19.898 19.2043C19.9663 19.0236 20.035 18.7786 20.0997 18.4703C20.229 17.8548 20.3299 17.051 20.3981 16.1387C20.5029 14.7355 20.5274 13.1188 20.4714 11.616ZM11.9819 21.9821H11.9803L11.9596 21.982L11.898 21.9817C11.8443 21.9814 11.766 21.9808 11.6663 21.9795C11.467 21.977 11.1817 21.972 10.8357 21.9619C10.1448 21.9419 9.20756 21.9017 8.22804 21.8211C7.25254 21.7408 6.21566 21.6188 5.33234 21.431C4.89103 21.3373 4.47055 21.2235 4.10748 21.0827C3.75763 20.947 3.39612 20.7621 3.13141 20.4934C2.91924 20.2779 2.77971 19.9904 2.68064 19.7285C2.57581 19.4514 2.48852 19.1264 2.41467 18.7749C2.26675 18.0708 2.15953 17.1957 2.0888 16.2491C1.94715 14.3537 1.94657 12.0982 2.08701 10.1998C2.15744 9.24786 2.26463 8.3674 2.41279 7.65905C2.48675 7.30545 2.57422 6.97852 2.67929 6.7C2.77856 6.43685 2.91845 6.14785 3.13141 5.9316C3.31612 5.74404 3.55656 5.62374 3.76194 5.5412C3.98181 5.45284 4.23784 5.37838 4.51319 5.31406C5.06482 5.18521 5.75915 5.08226 6.5345 5.00151C8.08918 4.8396 10.0409 4.75983 11.9821 4.75983C13.9234 4.75983 15.8751 4.8396 17.4297 5.00151C18.2051 5.08227 18.8994 5.18521 19.4511 5.31406C19.7264 5.37838 19.9824 5.45284 20.2023 5.5412C20.4077 5.62374 20.6481 5.74404 20.8328 5.9316C21.0458 6.14785 21.1857 6.43686 21.2849 6.7C21.39 6.97852 21.4775 7.30545 21.5514 7.65905C21.6996 8.3674 21.8068 9.24786 21.8772 10.1998C22.0177 12.0982 22.0171 14.3537 21.8754 16.2491C21.8047 17.1957 21.6975 18.0708 21.5496 18.7749C21.4757 19.1264 21.3884 19.4514 21.2836 19.7285C21.1845 19.9904 21.045 20.2779 20.8328 20.4934C20.5681 20.7621 20.2066 20.947 19.8568 21.0827C19.4937 21.2235 19.0732 21.3373 18.6319 21.431C17.7486 21.6188 16.7117 21.7408 15.7362 21.8211C14.7567 21.9017 13.8195 21.9419 13.1285 21.9619C12.7826 21.972 12.4973 21.977 12.2979 21.9795C12.1982 21.9808 12.1199 21.9814 12.0663 21.9817L12.0046 21.982L11.9839 21.9821H11.9819ZM10.7155 10.3259C10.7698 10.3143 10.8349 10.3024 10.9107 10.291C11.1993 10.2475 11.5763 10.2207 11.9662 10.2171C12.3566 10.2134 12.7343 10.2332 13.0258 10.2745C13.1197 10.2878 13.1972 10.3023 13.2586 10.3166C13.2821 10.4305 13.3047 10.5854 13.3239 10.7787C13.3677 11.2188 13.387 11.7866 13.3822 12.3612C13.3776 12.9229 13.35 13.4708 13.3043 13.8909C13.2869 14.0509 13.2679 14.1828 13.2488 14.2851C13.1944 14.2967 13.1294 14.3086 13.0536 14.3201C12.7649 14.3636 12.3879 14.3903 11.9981 14.394C11.6076 14.3976 11.2299 14.3778 10.9384 14.3365C10.8445 14.3232 10.7671 14.3087 10.7057 14.2944C10.6842 14.1905 10.6632 14.0509 10.6449 13.8772C10.6012 13.4624 10.58 12.9239 10.5813 12.3692C10.5828 11.7877 10.6091 11.2104 10.6551 10.765C10.6737 10.5858 10.6944 10.4385 10.7155 10.3259ZM10.7429 14.4366C10.7452 14.4416 10.7454 14.4426 10.7437 14.4386L10.7429 14.4366ZM13.2062 14.4619C13.2039 14.4679 13.204 14.4663 13.2073 14.4589L13.2062 14.4619ZM13.2214 10.1745C13.2184 10.1683 13.2184 10.1671 13.2207 10.1727L13.2214 10.1745ZM10.7569 10.1522L10.7579 10.1493C10.7609 10.1414 10.7609 10.1433 10.7569 10.1522Z" fill="white"/>
</svg>
