<svg width="24" height="24" viewBox="0 0 24 24" fill="none" xmlns="http://www.w3.org/2000/svg">
<path fill-rule="evenodd" clip-rule="evenodd" d="M4.90961 4.03658C4.34313 4.21245 4.02443 4.40135 3.88728 4.55312C3.52445 4.95465 3.36171 5.59589 3.40092 6.29647C3.44088 7.01042 3.67898 7.58829 3.88736 7.81897C4.00222 7.94612 4.14871 8.05599 4.34739 8.18552C4.38852 8.21234 4.43487 8.24175 4.48463 8.27332C4.64724 8.37647 4.84632 8.50277 5.01916 8.63767C5.2637 8.82852 5.51465 9.07696 5.69879 9.42805C5.88374 9.78069 5.9777 10.1917 5.9777 10.6756C5.9777 11.1217 5.88364 11.9201 5.76962 12.8154C5.73761 13.0668 5.70352 13.3293 5.66843 13.5994C5.57487 14.3198 5.47418 15.0951 5.38663 15.8621C5.26606 16.9184 5.1739 17.9308 5.16045 18.727C5.15369 19.1267 5.16735 19.449 5.20067 19.685C5.2212 19.8303 5.2445 19.9056 5.25473 19.9362C5.28511 19.9544 5.35392 19.9917 5.48422 20.0382C5.67904 20.1077 5.94175 20.174 6.26301 20.2343C6.90357 20.3545 7.70179 20.4371 8.495 20.4931C9.28427 20.5487 10.0507 20.5767 10.6211 20.5907C10.9059 20.5977 11.1409 20.6012 11.3043 20.6029C11.386 20.6038 11.4497 20.6042 11.4927 20.6044L11.5414 20.6046L11.5564 20.6047H11.5577L11.5726 20.6046L11.6213 20.6044C11.6644 20.6042 11.7281 20.6038 11.8098 20.6029C11.9731 20.6012 12.2081 20.5977 12.4929 20.5907C13.0633 20.5767 13.8298 20.5487 14.6191 20.4931C15.1681 20.4544 15.2105 20.4555 15.851 20.3353C16.1723 20.275 16.435 20.2087 16.6298 20.1392C16.7601 20.0927 16.8289 20.0554 16.8593 20.0372C16.8696 20.0066 16.8929 19.8303 16.9134 19.685C16.9467 19.449 16.9604 19.1267 16.9536 18.727C16.9402 17.9308 16.848 16.9184 16.7274 15.8621C16.6399 15.0951 16.5392 14.3198 16.4456 13.5995C16.4105 13.3293 16.3764 13.0668 16.3444 12.8154C16.2304 11.9201 16.1364 11.1217 16.1364 10.6756C16.1364 10.1917 16.2303 9.78069 16.4153 9.42805C16.5994 9.07696 16.8504 8.82852 17.0949 8.63767C17.2677 8.50276 17.4668 8.37647 17.6294 8.27331C17.6792 8.24174 17.7255 8.21234 17.7667 8.18552C17.9654 8.05599 18.1118 7.94612 18.2267 7.81897C18.4351 7.58829 18.6732 7.01042 18.7131 6.29647C18.7523 5.59589 18.5896 4.95465 18.2268 4.55312C18.0896 4.40135 17.7709 4.21245 17.2044 4.03658C16.661 3.86786 15.9794 3.73772 15.2193 3.64068C13.7012 3.44688 12.9551 3.39535 11.557 3.39535C10.1589 3.39535 8.41285 3.44688 6.89481 3.64068C6.13468 3.73772 5.45305 3.86786 4.90961 4.03658ZM11.5568 22L11.538 22L11.4858 21.9998C11.4402 21.9995 11.3739 21.9991 11.2894 21.9982C11.1205 21.9964 10.879 21.9928 10.5869 21.9856C10.0034 21.9713 9.21431 21.9426 8.39687 21.885C7.58336 21.8276 6.72371 21.7404 6.00574 21.6057C5.64774 21.5386 5.30601 21.4562 5.01506 21.3523C4.74702 21.2566 4.42591 21.1104 4.20318 20.8639C3.94803 20.5815 3.86123 20.1789 3.81902 19.8801C3.771 19.5401 3.75799 19.1352 3.76529 18.7034C3.77993 17.8366 3.87872 16.7688 4.00027 15.7039C4.08915 14.9253 4.19204 14.1331 4.28601 13.4095C4.32076 13.142 4.35429 12.8838 4.38544 12.6392C4.50419 11.7067 4.58234 11.0121 4.58234 10.6756C4.58234 10.377 4.52587 10.1959 4.46307 10.0761C4.39946 9.95485 4.30535 9.85058 4.16065 9.73765C4.04575 9.64798 3.93113 9.57521 3.78676 9.48355C3.72569 9.44478 3.65929 9.40262 3.5853 9.35438C3.35951 9.20717 3.09048 9.01842 2.8519 8.7543C2.3534 8.20245 2.05788 7.27022 2.00775 6.37444C1.95686 5.46529 2.14756 4.39717 2.85198 3.61762C3.24846 3.17886 3.86763 2.89902 4.49588 2.70398C5.14719 2.50177 5.91715 2.35881 6.71811 2.25656C8.32223 2.05178 10.1362 2 11.557 2C11.8385 2 12.1354 2.00203 12.443 2.00688C13.8638 2.00688 15.6778 2.05178 17.2819 2.25656C18.0828 2.35881 18.8528 2.50177 19.5041 2.70398C20.1324 2.89902 20.7515 3.17886 21.148 3.61762C21.8524 4.39717 22.0431 5.46529 21.9923 6.37444C21.9421 7.27022 21.6466 8.20245 21.1481 8.7543C20.9095 9.01842 20.6405 9.20717 20.4147 9.35438C20.3407 9.40262 20.2743 9.44478 20.2132 9.48355C20.0689 9.57521 19.9542 9.64798 19.8393 9.73765C19.6947 9.85058 19.6005 9.95485 19.5369 10.0761C19.4741 10.1959 19.4177 10.377 19.4177 10.6756C19.4177 11.0121 19.4958 11.7067 19.6146 12.6392C19.6457 12.8838 19.6792 13.1419 19.714 13.4095C19.808 14.133 19.9109 14.9253 19.9997 15.7039C20.1213 16.7688 20.2201 17.8366 20.2347 18.7034C20.242 19.1352 20.229 19.5401 20.181 19.8801C20.1388 20.1789 20.052 20.5815 19.7968 20.8639C19.5741 21.1104 19.253 21.2566 18.9849 21.3523C18.694 21.4562 18.3523 21.5386 17.9943 21.6057C17.2763 21.7404 16.4166 21.8276 15.6031 21.885C14.7857 21.9426 13.9966 21.9713 13.4131 21.9856C13.121 21.9928 12.8795 21.9964 12.7106 21.9982C12.6261 21.9991 12.5598 21.9995 12.5142 21.9998L12.462 22L12.4435 22C12.189 22.0059 11.977 21.9966 11.8246 21.9982C11.7402 21.9991 11.6738 21.9995 11.6283 21.9998L11.576 22L11.5568 22Z" fill="white"/>
</svg>
