<svg width="24" height="24" viewBox="0 0 24 24" fill="none" xmlns="http://www.w3.org/2000/svg">
<path fill-rule="evenodd" clip-rule="evenodd" d="M16.5656 4.97781C16.73 5.36818 16.8912 5.67384 17.1427 5.92527C17.6455 6.42807 18.5749 6.65379 19.5391 6.71051C19.9966 6.73742 20.4169 6.72402 20.7236 6.70358C20.8762 6.6934 20.9991 6.68159 21.0823 6.67252C21.1239 6.668 21.1555 6.66416 21.1759 6.66158L21.1978 6.65873L21.2018 6.65817C21.402 6.62967 21.6049 6.68933 21.7576 6.82178C21.9104 6.95429 21.9982 7.14659 21.9982 7.34884V17.4318C21.9982 17.4653 21.9982 17.499 21.9982 17.533L21.9982 21.3023C21.9982 21.6876 21.6858 22 21.3005 22C19.6688 22 18.7397 21.2974 18.2604 20.4985C18.0849 20.206 17.9792 19.917 17.9151 19.6744H11.9982V18.2791H18.5098C18.8931 18.2791 19.2042 18.5882 19.2074 18.9707C19.2074 18.9707 19.2075 18.9729 19.2076 18.975C19.2079 18.9821 19.2086 18.9965 19.2104 19.0171C19.2139 19.0585 19.2215 19.1232 19.2375 19.2033C19.2701 19.366 19.3342 19.5761 19.4569 19.7806C19.6248 20.0604 19.9393 20.3972 20.6028 20.5379V17.5814C20.6028 16.6846 20.6013 16.0823 20.5409 15.6329C20.4832 15.2037 20.3835 15.0199 20.2622 14.8987C20.141 14.7775 19.9573 14.6777 19.528 14.62C19.0787 14.5596 18.4763 14.5581 17.5796 14.5581H11.9982V14.0929C11.8392 14.1723 11.8391 14.1721 11.8391 14.1721L11.8384 14.1707L11.8371 14.1682L11.8336 14.1611L11.823 14.1389C11.8143 14.1206 11.8026 14.0955 11.7885 14.0641C11.7604 14.0015 11.7227 13.9134 11.6813 13.8057C11.5992 13.5922 11.4984 13.2913 11.4303 12.9508C11.3041 12.3197 11.2429 11.3034 11.97 10.5764C12.3745 10.1718 13.0121 10.0041 13.5677 9.92797C14.1642 9.84626 14.8449 9.84825 15.4945 9.91012C16.1436 9.97194 16.7949 10.0967 17.3309 10.2781C17.5981 10.3686 17.8568 10.4798 18.0777 10.6171C18.2879 10.7477 18.5278 10.9411 18.6687 11.2229C19.011 11.9075 18.8562 12.6652 18.6835 13.1698C19.069 13.1782 19.4128 13.1966 19.714 13.2371C20.0292 13.2795 20.328 13.3494 20.6028 13.4713V8.10804C20.2831 8.12328 19.8865 8.1287 19.4572 8.10345C18.4447 8.04389 17.0486 7.80449 16.156 6.91194C15.7098 6.4657 15.4641 5.9574 15.2796 5.51928C15.2281 5.39705 15.1826 5.28438 15.1401 5.17899C15.0184 4.87745 14.9207 4.63562 14.7761 4.40053C14.6052 4.12283 14.3844 3.89143 14.004 3.71708C13.6042 3.53385 12.9872 3.39535 11.9982 3.39535V2C13.1021 2 13.9386 2.1522 14.5854 2.44862C15.2515 2.75392 15.6702 3.19113 15.9644 3.66923C16.177 4.01463 16.3345 4.40651 16.4652 4.73157C16.5004 4.81925 16.5337 4.90207 16.5656 4.97781ZM17.1742 13.1628C17.227 13.058 17.2834 12.9347 17.3333 12.8015C17.4895 12.3849 17.5131 12.0586 17.4302 11.8673C17.4198 11.8575 17.3936 11.8348 17.3412 11.8022C17.2405 11.7397 17.0886 11.6692 16.8835 11.5998C16.4747 11.4614 15.9341 11.3536 15.3623 11.2992C14.791 11.2448 14.2217 11.2468 13.7571 11.3104C13.2516 11.3796 13.0171 11.5026 12.9566 11.5631C12.7534 11.7663 12.6922 12.1454 12.7986 12.6771C12.834 12.8542 12.8832 13.0214 12.9319 13.1628H17.1742Z" fill="#F2F6F9"/>
<path fill-rule="evenodd" clip-rule="evenodd" d="M7.43438 4.97781C7.27002 5.36818 7.10875 5.67384 6.85731 5.92527C6.35452 6.42807 5.42503 6.65379 4.46083 6.71051C4.00333 6.73742 3.58306 6.72402 3.27641 6.70358C3.12374 6.6934 3.00089 6.68159 2.91764 6.67252C2.87605 6.668 2.84447 6.66416 2.82412 6.66158L2.80221 6.65873L2.79814 6.65817C2.59802 6.62967 2.39508 6.68933 2.24236 6.82178C2.08957 6.95429 2.0018 7.14659 2.0018 7.34884V17.4318C2.0018 17.4653 2.0018 17.499 2.0018 17.533L2.0018 21.3023C2.0018 21.6876 2.31416 22 2.69948 22C4.33118 22 5.26025 21.2974 5.73959 20.4985C5.91506 20.206 6.02078 19.917 6.08489 19.6744H12.0018V18.2791H5.49018C5.10689 18.2791 4.79579 18.5882 4.79253 18.9707C4.79253 18.9707 4.79246 18.9729 4.79238 18.975C4.79209 18.9821 4.79136 18.9965 4.7896 19.0171C4.78605 19.0585 4.77846 19.1232 4.76244 19.2033C4.72991 19.366 4.66578 19.5761 4.54309 19.7806C4.37518 20.0604 4.06063 20.3972 3.39715 20.5379V17.5814C3.39715 16.6846 3.39863 16.0823 3.45904 15.6329C3.51676 15.2037 3.6165 15.0199 3.73773 14.8987C3.85895 14.7775 4.04267 14.6777 4.47193 14.62C4.92127 14.5596 5.52365 14.5581 6.42041 14.5581H12.0018V14.0929C12.1608 14.1723 12.1609 14.1721 12.1609 14.1721L12.1616 14.1707L12.1629 14.1682L12.1663 14.1611L12.177 14.1389C12.1857 14.1206 12.1974 14.0955 12.2115 14.0641C12.2396 14.0015 12.2772 13.9134 12.3187 13.8057C12.4008 13.5922 12.5015 13.2913 12.5697 12.9508C12.6959 12.3197 12.757 11.3034 12.03 10.5764C11.6254 10.1718 10.9878 10.0041 10.4322 9.92797C9.83579 9.84626 9.15507 9.84825 8.50542 9.91012C7.85632 9.97194 7.20506 10.0967 6.66912 10.2781C6.40183 10.3686 6.14316 10.4798 5.92224 10.6171C5.71206 10.7477 5.47217 10.9411 5.33127 11.2229C4.98894 11.9075 5.14376 12.6652 5.31651 13.1698C4.93096 13.1782 4.5872 13.1966 4.28601 13.2371C3.97073 13.2795 3.67199 13.3494 3.39715 13.4713V8.10804C3.71692 8.12328 4.11351 8.1287 4.54277 8.10345C5.55532 8.04389 6.95142 7.80449 7.84397 6.91194C8.29021 6.4657 8.53592 5.9574 8.72039 5.51928C8.77185 5.39705 8.81734 5.28438 8.85988 5.17899C8.9816 4.87745 9.07922 4.63562 9.22389 4.40053C9.39479 4.12283 9.61559 3.89143 9.99598 3.71708C10.3958 3.53385 11.0127 3.39535 12.0018 3.39535V2C10.8978 2 10.0613 2.1522 9.4146 2.44862C8.74848 2.75392 8.32975 3.19113 8.03553 3.66923C7.82298 4.01463 7.66546 4.40651 7.53481 4.73157C7.49956 4.81925 7.46627 4.90207 7.43438 4.97781ZM6.82578 13.1628C6.773 13.058 6.7166 12.9347 6.66668 12.8015C6.51043 12.3849 6.48685 12.0586 6.5698 11.8673C6.58021 11.8575 6.60634 11.8348 6.65876 11.8022C6.75943 11.7397 6.91137 11.6692 7.11646 11.5998C7.52529 11.4614 8.06589 11.3536 8.63772 11.2992C9.209 11.2448 9.77828 11.2468 10.2429 11.3104C10.7483 11.3796 10.9828 11.5026 11.0434 11.5631C11.2466 11.7663 11.3077 12.1454 11.2014 12.6771C11.166 12.8542 11.1168 13.0214 11.0681 13.1628H6.82578Z" fill="#F2F6F9"/>
</svg>
