<svg width="24" height="24" viewBox="0 0 24 24" fill="none" xmlns="http://www.w3.org/2000/svg">
<path fill-rule="evenodd" clip-rule="evenodd" d="M14.077 7.02873C14.077 6.64638 14.3869 6.33643 14.7693 6.33643H16.6154C16.9027 6.33643 17.1601 6.51383 17.2624 6.78228L19.6633 13.0848C19.8726 13.0479 20.0879 13.0287 20.3077 13.0287C22.3469 13.0287 24 14.6818 24 16.721C24 18.7602 22.3469 20.4133 20.3077 20.4133C18.2685 20.4133 16.6154 18.7602 16.6154 16.721C16.6154 15.3927 17.3168 14.2282 18.3695 13.5778L17.3704 10.9551C17.1213 11.4795 16.8178 12.0987 16.4818 12.7427C16.0286 13.6115 15.511 14.5357 14.9843 15.3364C14.4699 16.1182 13.9028 16.8517 13.3385 17.2749C13.2421 17.3472 13.1285 17.3931 13.009 17.408C11.2347 17.6298 9.0685 17.6432 7.28011 17.5969C6.88687 19.2133 5.42973 20.4133 3.69231 20.4133C1.6531 20.4133 0 18.7602 0 16.721C0 14.6818 1.6531 13.0287 3.69231 13.0287C4.83635 13.0287 5.85887 13.549 6.53614 14.3659L9.08863 12.9613L7.87447 11.416C7.83956 11.3716 7.81095 11.3242 7.78852 11.275L6.89327 11.3826C6.10164 11.4777 5.49973 11.3085 5.41053 10.5658C5.32133 9.82316 5.59085 8.94538 6.41239 8.984C6.82507 9.00341 7.21743 9.207 7.62748 9.41977C8.03374 9.63057 8.45739 9.8504 8.93539 9.90905C9.37381 9.96285 9.7989 9.92104 10.1315 9.85971C10.4735 9.79663 10.8326 10.0201 10.8741 10.3655C10.9093 10.6588 10.7005 10.9252 10.4071 10.9604L9.3748 11.0844L10.318 12.2848L16.5669 8.84613L16.1383 7.72104H14.7693C14.3869 7.72104 14.077 7.41108 14.077 7.02873ZM7.35003 16.2136C7.32002 15.9953 7.27092 15.783 7.20447 15.5786L9.95555 14.0647L11.5951 16.1514C10.2117 16.2461 8.69058 16.2476 7.35003 16.2136ZM5.28723 15.0532C4.87285 14.6568 4.31101 14.4133 3.69231 14.4133C2.4178 14.4133 1.38462 15.4465 1.38462 16.721C1.38462 17.9955 2.4178 19.0287 3.69231 19.0287C4.67628 19.0287 5.51642 18.4129 5.84831 17.5456C5.35578 17.5233 4.92205 17.4988 4.57225 17.4769C4.28094 17.4587 4.04755 17.4423 3.88655 17.4304C3.80604 17.4245 3.74362 17.4196 3.70107 17.4163L3.65238 17.4124L3.6353 17.411L3.69236 16.721C3.63486 17.411 3.6353 17.411 3.6353 17.411C3.33105 17.3856 3.07889 17.1639 3.01525 16.8653C2.95162 16.5667 3.0911 16.2617 3.35859 16.1145L5.28723 15.0532ZM18.8771 14.9102C18.3428 15.3329 18 15.9869 18 16.721C18 17.9955 19.0332 19.0287 20.3077 19.0287C21.5822 19.0287 22.6154 17.9955 22.6154 16.721C22.6154 15.4465 21.5822 14.4133 20.3077 14.4133C20.2618 14.4133 20.2162 14.4147 20.171 14.4173L20.9547 16.4746C21.0908 16.8319 20.9115 17.2319 20.5542 17.368C20.1969 17.5041 19.7969 17.3248 19.6608 16.9675L18.8771 14.9102ZM15.9164 10.7845L11.1849 13.3882L12.9969 15.6944C13.2507 15.4043 13.5312 15.0259 13.8275 14.5754C14.3185 13.829 14.8119 12.9501 15.2542 12.1023C15.4945 11.6417 15.7181 11.1933 15.9164 10.7845Z" fill="#F2F6F9"/>
</svg>
