<svg width="24" height="24" viewBox="0 0 24 24" fill="none" xmlns="http://www.w3.org/2000/svg">
<path d="M17.36 4.89017C17.0107 4.89018 16.6476 4.92284 16.3223 4.99532C16.0242 5.06173 15.6461 5.18516 15.3768 5.44009C15.0847 5.71659 14.9916 6.07421 14.9606 6.33808C14.9282 6.61424 14.9514 6.89524 14.9864 7.12694C14.9902 7.1513 14.9727 7.17389 14.9477 7.18054C14.6805 7.25144 14.5379 7.5249 14.6198 7.78347L14.6787 7.96935C14.7922 8.32766 15.193 8.52942 15.5861 8.4922C15.6848 8.48286 15.7662 8.47827 15.8212 8.47604C15.8487 8.47492 15.8693 8.4744 15.882 8.47416L15.8949 8.47397L15.8961 8.47396C15.8961 8.47396 16.5071 8.4325 17.36 8.4325C18.213 8.4325 18.824 8.47396 18.824 8.47396L18.8252 8.47397L18.8381 8.47416C18.8508 8.4744 18.8714 8.47492 18.8989 8.47604C18.9539 8.47827 19.0353 8.48286 19.134 8.4922C19.3349 8.51122 19.5904 8.54841 19.8358 8.61812C20.0889 8.69001 20.2794 8.78203 20.3957 8.88116C20.4911 8.96242 20.5348 9.04243 20.5348 9.1676V15.867C20.5348 16.4685 20.5343 17.4534 20.4405 18.3724C20.3935 18.8328 20.3251 19.2541 20.23 19.5908C20.1274 19.9538 20.022 20.1121 19.9758 20.1545L19.9793 20.1511C19.9793 20.1511 19.9294 20.185 19.7845 20.2327C19.6312 20.2831 19.4237 20.3312 19.1674 20.3722C18.6561 20.4538 18.0147 20.4971 17.36 20.4971C16.7054 20.4971 16.064 20.4538 15.5527 20.3722C15.2068 20.3169 14.8423 20.487 14.7271 20.8007L14.6951 20.8879C14.5623 21.2498 14.766 21.6444 15.1636 21.7155C15.2116 21.7241 15.2601 21.7323 15.3089 21.7401C15.9209 21.8379 16.6471 21.8844 17.36 21.8844C18.073 21.8844 18.7992 21.8379 19.4112 21.7401C19.7165 21.6913 20.0097 21.6273 20.2655 21.5431C20.5055 21.4641 20.784 21.345 20.996 21.1502C21.3406 20.8337 21.5282 20.3639 21.6454 19.9494C21.77 19.5084 21.8482 19.0026 21.8989 18.5059C22 17.5155 22 16.4718 22 15.8755V9.1676C22 8.59914 21.7384 8.15892 21.3759 7.85C21.0343 7.55896 20.6143 7.39086 20.2569 7.28934C20.074 7.2374 19.8936 7.19906 19.7269 7.17066L19.7337 7.12694C19.7687 6.89524 19.7919 6.61424 19.7595 6.33808C19.7285 6.07421 19.6354 5.71659 19.3433 5.44009C19.074 5.18516 18.6959 5.06173 18.3978 4.99532C18.0725 4.92284 17.7094 4.89018 17.36 4.89017Z" fill="white"/>
<path fill-rule="evenodd" clip-rule="evenodd" d="M4.75182 4.44652C4.77152 4.61437 4.7968 4.77544 4.82257 4.9189C4.54183 5.03302 4.18738 5.1912 3.82872 5.38929C3.43107 5.60891 2.99604 5.89504 2.65218 6.24773C2.31078 6.59789 2 7.07643 2 7.66474V11.3642C2 11.8556 2.11806 12.2686 2.35434 12.6C2.43951 12.7195 2.5343 12.8203 2.63326 12.9056C2.5343 12.9909 2.43951 13.0917 2.35434 13.2112C2.11806 13.5426 2 13.9556 2 14.447V14.4553C2 15.2242 2 16.5604 2.1253 17.8258C2.1881 18.46 2.28431 19.0984 2.43561 19.6502C2.57944 20.1748 2.80165 20.7342 3.19141 21.1032C3.42709 21.3263 3.74571 21.4699 4.03857 21.5692C4.3466 21.6737 4.70338 21.7544 5.0797 21.8163C5.8336 21.9405 6.73197 22 7.61678 22C8.5016 22 9.39997 21.9405 10.1539 21.8163C10.5302 21.7544 10.887 21.6737 11.195 21.5692C11.4879 21.4699 11.8065 21.3263 12.0422 21.1032C12.4319 20.7342 12.6541 20.1748 12.798 19.6502C12.9493 19.0984 13.0455 18.46 13.1083 17.8258C13.2336 16.5603 13.2336 15.2242 13.2336 14.4553V14.447C13.2336 13.9556 13.1155 13.5426 12.8792 13.2112C12.7941 13.0917 12.6993 12.9909 12.6003 12.9056C12.6993 12.8203 12.7941 12.7195 12.8792 12.6C13.1155 12.2686 13.2336 11.8556 13.2336 11.3642V7.66474C13.2336 7.1347 12.9805 6.69323 12.6838 6.35786C12.3875 6.02297 12.008 5.74734 11.6477 5.52955C11.2122 5.26627 10.7583 5.06007 10.411 4.91889C10.4368 4.77544 10.462 4.61439 10.4817 4.44656C10.5147 4.16549 10.5354 3.83879 10.5061 3.53405C10.4804 3.26591 10.4033 2.84809 10.0885 2.55002C9.9139 2.38466 9.69448 2.29169 9.52944 2.23571C9.34923 2.17459 9.1489 2.13001 8.9481 2.09695C8.54525 2.03062 8.07423 1.99999 7.61678 2C7.15933 2.00001 6.68832 2.03064 6.28548 2.09698C6.08468 2.13004 5.88436 2.17462 5.70416 2.23573C5.53913 2.29169 5.31973 2.38464 5.14511 2.54996C4.83026 2.84802 4.7532 3.26589 4.72746 3.534C4.69819 3.83874 4.71884 4.16545 4.75182 4.44652ZM9.33813 6.01045L9.01433 5.90826C8.95025 5.88989 8.87983 5.87061 8.80453 5.85133C8.44303 5.7588 8.0115 5.67755 7.63772 5.67755C7.25868 5.67755 6.83327 5.75401 6.48267 5.83982C6.31175 5.88165 6.16751 5.92347 6.06709 5.95447C6.01703 5.96992 5.97829 5.98255 5.95303 5.99098L5.92566 6.00024L5.91954 6.00237L5.90768 6.00658L5.8948 6.01065L5.89142 6.01174L5.87223 6.01803C5.85441 6.02393 5.82681 6.03323 5.79085 6.04579C5.71883 6.07096 5.61384 6.10904 5.48701 6.15907C5.23135 6.25993 4.89653 6.40561 4.56702 6.58759C4.23205 6.77259 3.93446 6.9778 3.72885 7.18869C3.52078 7.40211 3.46525 7.55941 3.46525 7.66474V11.3642C3.46525 11.6435 3.53034 11.7699 3.5688 11.8239C3.60757 11.8782 3.66414 11.9219 3.76279 11.9634C3.84915 11.9998 3.91922 12.018 4.01974 12.0442C4.06468 12.0559 4.11577 12.0692 4.17706 12.0864C4.2457 12.1056 4.39235 12.1472 4.52762 12.2285C4.68657 12.324 4.9305 12.5415 4.9305 12.9056C4.9305 13.2697 4.68657 13.4871 4.52762 13.5827C4.39235 13.664 4.2457 13.7055 4.17706 13.7248C4.11577 13.742 4.06474 13.7553 4.01979 13.767C3.91927 13.7931 3.84915 13.8114 3.76279 13.8477C3.66414 13.8893 3.60757 13.9329 3.5688 13.9873C3.53034 14.0413 3.46525 14.1677 3.46525 14.447C3.46525 15.2209 3.4657 16.5001 3.58415 17.6963C3.64346 18.2953 3.73041 18.8515 3.85384 19.3016C3.98474 19.779 4.12885 20.0288 4.2275 20.1222C4.2275 20.1222 4.24531 20.1387 4.30138 20.168C4.35576 20.1964 4.43175 20.2289 4.53269 20.2632C4.73598 20.3321 5.00499 20.3959 5.33076 20.4496C5.98106 20.5566 6.79214 20.6127 7.61678 20.6127C8.44143 20.6127 9.25251 20.5566 9.90281 20.4496C10.2286 20.3959 10.4976 20.3321 10.7009 20.2632C10.8018 20.2289 10.8778 20.1964 10.9322 20.168C10.9883 20.1387 11.0061 20.1222 11.0061 20.1222C11.1047 20.0288 11.2488 19.779 11.3797 19.3016C11.5032 18.8515 11.5901 18.2953 11.6494 17.6963C11.7679 16.5001 11.7683 15.2209 11.7683 14.447C11.7683 14.1677 11.7032 14.0413 11.6648 13.9873C11.626 13.9329 11.5694 13.8893 11.4708 13.8477C11.3844 13.8114 11.3144 13.7932 11.2138 13.767C11.1689 13.7553 11.1178 13.742 11.0565 13.7248C10.9879 13.7055 10.8412 13.664 10.7059 13.5827C10.547 13.4871 10.3031 13.2697 10.3031 12.9056C10.3031 12.5415 10.547 12.324 10.7059 12.2285C10.8412 12.1472 10.9879 12.1056 11.0565 12.0864C11.1178 12.0692 11.1688 12.0559 11.2138 12.0442C11.3143 12.018 11.3844 11.9998 11.4708 11.9634C11.5694 11.9219 11.626 11.8782 11.6648 11.8239C11.7032 11.7699 11.7683 11.6435 11.7683 11.3642V7.66474C11.7683 7.57008 11.7243 7.43375 11.5606 7.24874C11.3965 7.06326 11.1522 6.87596 10.8592 6.69881C10.2741 6.34508 9.62142 6.1067 9.40283 6.03201C9.37987 6.02416 9.36257 6.01841 9.35164 6.01483L9.34014 6.01109L9.33813 6.01045Z" fill="white"/>
</svg>
