<svg width="24" height="24" viewBox="0 0 24 24" fill="none" xmlns="http://www.w3.org/2000/svg">
<path fill-rule="evenodd" clip-rule="evenodd" d="M7.11628 16.1176C7.11628 15.7278 7.42864 15.4117 7.81395 15.4117H9.67442C10.0597 15.4117 10.3721 15.7278 10.3721 16.1176C10.3721 16.5075 10.0597 16.8235 9.67442 16.8235H7.81395C7.42864 16.8235 7.11628 16.5075 7.11628 16.1176ZM13.6279 16.1176C13.6279 15.7278 13.9403 15.4117 14.3256 15.4117H16.186C16.5714 15.4117 16.8837 15.7278 16.8837 16.1176C16.8837 16.5075 16.5714 16.8235 16.186 16.8235H14.3256C13.9403 16.8235 13.6279 16.5075 13.6279 16.1176Z" fill="white"/>
<path fill-rule="evenodd" clip-rule="evenodd" d="M4.57426 6.7647C4.58177 6.51239 4.59279 6.27764 4.60894 6.05882C4.68638 5.00964 4.88191 4.32641 5.37552 3.82699C6.19289 3 7.50844 3 10.1395 3H13.8605C16.4916 3 17.8071 3 18.6245 3.82699C19.1181 4.32641 19.3136 5.00964 19.3911 6.05882C19.4072 6.27764 19.4182 6.51239 19.4257 6.7647C19.4419 7.30588 19.4419 7.92789 19.4419 8.64705V13.7647C19.4419 16.4267 19.4419 17.7578 18.6245 18.5847C18.3982 18.8136 18.1339 18.9792 17.814 19.0989V20.0977C17.814 21.1483 16.9722 22 15.9338 22C14.8954 22 14.0536 21.1483 14.0536 20.0977V19.4117C13.99 19.4117 13.9256 19.4117 13.8605 19.4117H10.1395C10.0744 19.4117 10.01 19.4117 9.94644 19.4117V20.0977C9.94644 21.1483 9.10464 22 8.06624 22C7.02784 22 6.18605 21.1483 6.18605 20.0977V19.0989C5.86615 18.9792 5.60175 18.8136 5.37552 18.5847C4.55814 17.7578 4.55814 16.4267 4.55814 13.7647V8.64705C4.55814 7.92789 4.55814 7.30588 4.57426 6.7647ZM7.5814 19.3603V20.0977C7.5814 20.3686 7.79847 20.5882 8.06624 20.5882C8.33402 20.5882 8.55109 20.3686 8.55109 20.0977V19.4023C8.19627 19.3951 7.8744 19.3825 7.5814 19.3603ZM15.4489 19.4023V20.0977C15.4489 20.3686 15.666 20.5882 15.9338 20.5882C16.2015 20.5882 16.4186 20.3686 16.4186 20.0977V19.3603C16.1256 19.3825 15.8037 19.3951 15.4489 19.4023ZM5.95351 13.9322C5.95388 15.2085 5.96004 16.0488 6.04322 16.6747C6.12459 17.2871 6.25596 17.479 6.36218 17.5865C6.4684 17.6939 6.65809 17.8269 7.26331 17.9092C7.90867 17.997 8.78454 18 10.1395 18H13.8605C15.2155 18 16.0913 17.997 16.7367 17.9092C17.3419 17.8269 17.5316 17.6939 17.6378 17.5865C17.744 17.479 17.8754 17.2871 17.9568 16.6747C18.04 16.0488 18.0461 15.2085 18.0465 13.9322C17.958 13.9506 17.8659 13.9691 17.7701 13.9875C16.5049 14.2313 14.6007 14.4706 12 14.4706C9.39933 14.4706 7.49512 14.2313 6.22992 13.9875C6.13412 13.9691 6.04199 13.9506 5.95351 13.9322ZM18.0465 12.4883C17.885 12.5249 17.706 12.5627 17.509 12.6007C16.3323 12.8274 14.5156 13.0588 12 13.0588C9.48439 13.0588 7.66767 12.8274 6.49101 12.6007C6.29403 12.5627 6.11495 12.5249 5.95349 12.4883V8.64705C5.95349 8.2125 5.95354 7.82347 5.95687 7.47058H18.0431C18.0465 7.82347 18.0465 8.2125 18.0465 8.64705V12.4883ZM17.9902 6.05882C17.916 5.20067 17.7723 4.96127 17.6378 4.82526C17.5316 4.71779 17.3419 4.58487 16.7367 4.50255C16.0913 4.41476 15.2155 4.41176 13.8605 4.41176H10.1395C8.78454 4.41176 7.90867 4.41476 7.26331 4.50255C6.65809 4.58487 6.4684 4.71779 6.36218 4.82526C6.22774 4.96127 6.08401 5.20067 6.0098 6.05882H17.9902Z" fill="white"/>
<path d="M2.69767 8.64705C3.08299 8.64705 3.39535 8.96308 3.39535 9.35293V12.1176C3.39535 12.5075 3.08299 12.8235 2.69767 12.8235C2.31236 12.8235 2 12.5075 2 12.1176V9.35293C2 8.96308 2.31236 8.64705 2.69767 8.64705Z" fill="white"/>
<path d="M21.3023 12.8235C21.6876 12.8235 22 12.5075 22 12.1176V9.35293C22 8.96308 21.6876 8.64705 21.3023 8.64705C20.917 8.64705 20.6047 8.96308 20.6047 9.35293V12.1176C20.6047 12.5075 20.917 12.8235 21.3023 12.8235Z" fill="white"/>
</svg>
