<svg width="24" height="24" viewBox="0 0 24 24" fill="none" xmlns="http://www.w3.org/2000/svg">
<path fill-rule="evenodd" clip-rule="evenodd" d="M16.9111 2.2848C17.2098 2.05996 17.6784 1.86898 18.1785 2.11595C18.6817 2.36449 18.8118 2.85599 18.8098 3.23185C18.8079 3.59197 18.6957 3.9822 18.556 4.34431C18.2805 5.05846 17.8006 5.90488 17.2985 6.7015C18.0951 6.19934 18.9415 5.71947 19.6557 5.44398C20.0178 5.30431 20.408 5.19205 20.7681 5.19017C21.144 5.18821 21.6355 5.3183 21.884 5.82154C22.131 6.3216 21.94 6.79018 21.7152 7.08891C21.4985 7.37676 21.1763 7.62373 20.848 7.83225C20.2002 8.24361 19.3106 8.63896 18.4334 8.98059C19.0969 9.01925 19.7433 9.07332 20.2657 9.1497C20.5963 9.19803 20.9145 9.26034 21.1639 9.34708C21.2845 9.38901 21.4357 9.45217 21.5696 9.55297C21.6963 9.64839 21.9261 9.87174 21.9231 10.236C21.918 10.8554 21.3928 11.1733 21.0914 11.3071C20.7284 11.4683 20.2639 11.5637 19.7635 11.6063C19.0352 11.6684 18.1443 11.6257 17.1964 11.4425C17.212 11.537 17.2269 11.635 17.2404 11.7356C17.2932 12.1285 17.3279 12.5775 17.3022 13.0147C17.277 13.4419 17.1911 13.9197 16.9544 14.3257C16.8762 14.4599 16.7616 14.5914 16.6579 14.7011C16.5448 14.8208 16.4052 14.9552 16.2464 15.0996C15.9281 15.3889 15.5104 15.7384 15.0239 16.1223C14.2365 16.7436 13.2548 17.466 12.1936 18.186C11.2858 18.8019 10.316 19.4187 9.35656 19.9702C8.03957 20.7272 6.71189 21.3788 5.5781 21.7261C5.01273 21.8993 4.45753 22.0089 3.95583 21.9994C3.45382 21.9899 2.92908 21.8579 2.53558 21.4644C2.08146 21.0102 1.97508 20.3841 2.00455 19.8052C2.03445 19.218 2.20802 18.5574 2.45714 17.8797C2.95746 16.5185 3.82307 14.9288 4.76639 13.415C5.71379 11.8946 6.75876 10.4204 7.63744 9.28374C8.07655 8.71568 8.47854 8.22621 8.80962 7.85457C8.97481 7.66914 9.12732 7.50744 9.26143 7.37788C9.38371 7.25974 9.52901 7.13023 9.67428 7.04555C10.0803 6.80891 10.5581 6.72295 10.9853 6.69781C11.4225 6.67208 11.8715 6.70681 12.2644 6.75962C12.365 6.77313 12.463 6.788 12.5575 6.80364C12.3743 5.85573 12.3316 4.9648 12.3936 4.23647C12.4363 3.73605 12.5317 3.27156 12.6929 2.90858C12.8267 2.60718 13.1446 2.08197 13.764 2.07691C14.1282 2.07393 14.3516 2.30365 14.447 2.4304C14.5478 2.56429 14.611 2.71552 14.6529 2.8361C14.7396 3.08554 14.802 3.40366 14.8503 3.73425C14.9267 4.25669 14.9807 4.90306 15.0194 5.56657C15.361 4.68941 15.7564 3.7998 16.1677 3.15204C16.3763 2.82367 16.6232 2.50145 16.9111 2.2848ZM12.9355 8.30102C12.7108 8.24871 12.4082 8.18675 12.0786 8.14245C11.737 8.09654 11.384 8.07203 11.0672 8.09066C10.7405 8.10989 10.5126 8.17191 10.3769 8.25098C10.3792 8.24964 10.3786 8.25013 10.3748 8.25305C10.3626 8.26262 10.3168 8.29832 10.2309 8.38134C10.1306 8.47826 10.0032 8.61228 9.85143 8.78268C9.54851 9.12271 9.16781 9.58537 8.74134 10.1371C7.88886 11.2399 6.8711 12.6756 5.95056 14.1529C5.02594 15.6367 4.21841 17.1322 3.76674 18.361C3.53987 18.9782 3.41773 19.4889 3.39801 19.8762C3.37787 20.2718 3.46796 20.4235 3.52218 20.4778C3.56901 20.5246 3.68681 20.5988 3.98222 20.6044C4.27793 20.61 4.67502 20.5435 5.16945 20.392C5.56234 20.2717 5.99274 20.1053 6.44964 19.9021C6.22513 19.7795 5.99869 19.6229 5.77476 19.4253C5.48589 19.1703 5.45839 18.7295 5.71335 18.4406C5.9683 18.1517 6.40916 18.1242 6.69804 18.3792C7.2282 18.8471 7.72942 18.9196 8.09123 18.8943C8.27981 18.8812 8.43738 18.8402 8.54528 18.8036C8.59873 18.7854 8.63833 18.7689 8.6615 18.7585C8.66829 18.7555 8.6736 18.753 8.67738 18.7512C8.88749 18.6303 9.09844 18.5059 9.30938 18.3789C8.57614 18.1033 7.79841 17.5502 7.05752 16.5624C6.82634 16.2541 6.88881 15.8169 7.19704 15.5857C7.50528 15.3545 7.94255 15.417 8.17373 15.7252C9.09408 16.9523 9.95021 17.1983 10.5035 17.2133C10.7982 17.2213 11.0444 17.1647 11.215 17.107C11.2997 17.0782 11.3637 17.0499 11.4029 17.031C11.4163 17.0245 11.4267 17.0191 11.4339 17.0153C11.5686 16.9238 11.7019 16.8323 11.8336 16.7411C11.5636 16.6706 11.2872 16.5641 11.0095 16.412C10.3205 16.0348 9.66566 15.4009 9.08603 14.4335C8.888 14.103 8.99538 13.6746 9.32588 13.4765C9.65639 13.2785 10.0849 13.3859 10.2829 13.7164C10.762 14.5159 11.2499 14.9529 11.6796 15.1882C12.1066 15.422 12.5175 15.4794 12.8838 15.454C13.2573 15.4281 13.5885 15.3151 13.8313 15.2034C13.9512 15.1483 14.045 15.0956 14.1063 15.0584C14.1368 15.04 14.1589 15.0256 14.1716 15.017L14.1759 15.0141C14.6396 14.6478 15.0246 14.3246 15.3078 14.0671C15.4514 13.9366 15.5633 13.8279 15.644 13.7426C15.7102 13.6726 15.7393 13.6349 15.7475 13.6242C15.7505 13.6204 15.7508 13.6201 15.749 13.6231C15.8281 13.4874 15.8901 13.2595 15.9093 12.9327C15.928 12.616 15.9034 12.2629 15.8575 11.9214C15.8132 11.5918 15.7513 11.2891 15.699 11.0645C15.5971 11.0329 15.4817 10.9941 15.3581 10.9471C14.9421 10.7889 14.3744 10.5165 13.9289 10.071C13.4834 9.62557 13.2111 9.0579 13.0529 8.64192C13.0059 8.51828 12.967 8.4029 12.9355 8.30102Z" fill="white"/>
</svg>
