<svg width="24" height="24" viewBox="0 0 24 24" fill="none" xmlns="http://www.w3.org/2000/svg">
<path d="M8.22769 2H15.7716C17.0438 1.99998 18.0692 1.99997 18.8757 2.10839C19.713 2.22097 20.418 2.4618 20.9779 3.02172C21.5379 3.58164 21.7787 4.28664 21.8913 5.12395C21.9997 5.93044 21.9997 6.95585 21.9997 8.22803V11.0458C21.9997 11.4312 21.6873 11.7435 21.302 11.7435C20.9167 11.7435 20.6043 11.4312 20.6043 11.0458V8.27907C20.6043 6.9438 20.6028 6.01253 20.5084 5.30988C20.4166 4.6273 20.2487 4.26584 19.9913 4.00838C19.7338 3.75093 19.3724 3.58307 18.6898 3.4913C17.9871 3.39683 17.0559 3.39535 15.7206 3.39535H8.27873C6.94346 3.39535 6.0122 3.39683 5.30955 3.4913C4.62696 3.58307 4.2655 3.75093 4.00805 4.00838C3.75059 4.26584 3.58274 4.6273 3.49097 5.30988C3.3965 6.01253 3.39501 6.9438 3.39501 8.27907V15.7209C3.39501 17.0562 3.3965 17.9875 3.49097 18.6901C3.58274 19.3727 3.75059 19.7342 4.00805 19.9916C4.2655 20.2491 4.62696 20.4169 5.30955 20.5087C6.0122 20.6032 6.94346 20.6047 8.27873 20.6047H11.0465C11.4319 20.6047 11.7442 20.917 11.7442 21.3023C11.7442 21.6876 11.4319 22 11.0465 22H8.22769C6.95552 22 5.9301 22 5.12362 21.8916C4.28631 21.779 3.58131 21.5382 3.02139 20.9783C2.46146 20.4184 2.22063 19.7134 2.10806 18.876C1.99963 18.0696 1.99965 17.0442 1.99966 15.772V8.22802C1.99965 6.95586 1.99963 5.93043 2.10806 5.12395C2.22063 4.28664 2.46146 3.58164 3.02139 3.02172C3.58131 2.4618 4.28631 2.22097 5.12362 2.10839C5.93009 1.99997 6.95552 1.99998 8.22769 2Z" fill="white"/>
<path d="M18.3311 9.76263C18.1509 9.91256 17.7758 9.84324 17.0254 9.70458C15.0615 9.34168 12.9578 9.91972 11.4389 11.4387C11.3827 11.4948 11.3279 11.5518 11.2743 11.6095C10.848 12.0687 10.6347 12.2984 10.4436 12.3817C10.2524 12.4651 10.0085 12.4651 9.52082 12.4651H6.41827C5.90452 12.4651 5.48804 12.0486 5.48804 11.5349V6.4186C5.48804 5.90485 5.90452 5.48837 6.41827 5.48837H17.5811C18.0948 5.48837 18.5113 5.90485 18.5113 6.4186V8.61334C18.5113 9.27958 18.5113 9.6127 18.3311 9.76263Z" fill="white"/>
<path d="M7.11594 14.3256C6.73063 14.3256 6.41827 14.6379 6.41827 15.0233C6.41827 15.4086 6.73063 15.7209 7.11594 15.7209H8.63524C9.02056 15.7209 9.33292 15.4086 9.33292 15.0233C9.33292 14.6379 9.02056 14.3256 8.63524 14.3256H7.11594Z" fill="white"/>
<path d="M6.41827 17.814C6.41827 17.4286 6.73063 17.1163 7.11594 17.1163H9.13524C9.52056 17.1163 9.83292 17.4286 9.83292 17.814C9.83292 18.1993 9.52056 18.5116 9.13524 18.5116H7.11594C6.73063 18.5116 6.41827 18.1993 6.41827 17.814Z" fill="white"/>
<path fill-rule="evenodd" clip-rule="evenodd" d="M12.429 12.429C14.3344 10.5237 17.4236 10.5237 19.329 12.429C21.0681 14.1682 21.2199 16.8935 19.7843 18.8047L21.797 20.8174C22.0675 21.0879 22.0675 21.5266 21.797 21.7971C21.5265 22.0676 21.0878 22.0676 20.8173 21.7971L18.8046 19.7844C16.8934 21.22 14.1681 21.0682 12.429 19.3291C10.5236 17.4237 10.5236 14.3344 12.429 12.429ZM18.3493 13.4087C16.985 12.0444 14.773 12.0444 13.4087 13.4087C12.0443 14.7731 12.0443 16.9851 13.4087 18.3494C14.773 19.7137 16.985 19.7137 18.3493 18.3494C19.7136 16.9851 19.7136 14.7731 18.3493 13.4087Z" fill="white"/>
</svg>
