<svg width="24" height="24" viewBox="0 0 24 24" fill="none" xmlns="http://www.w3.org/2000/svg">
<path d="M9.20929 8.30769C9.20929 8.81749 8.79284 9.23077 8.27906 9.23077C7.76529 9.23077 7.34883 8.81749 7.34883 8.30769C7.34883 7.79789 7.76529 7.38462 8.27906 7.38462C8.79284 7.38462 9.20929 7.79789 9.20929 8.30769Z" fill="white"/>
<path fill-rule="evenodd" clip-rule="evenodd" d="M21.2436 7.42254C21.2727 7.46948 21.2962 7.50873 21.314 7.5393C21.499 7.76171 21.6199 8.03211 21.704 8.28925C21.8004 8.5841 21.8665 8.91819 21.9115 9.26503C22.0018 9.95911 22.0162 10.7714 21.9851 11.5635C21.9537 12.3588 21.8755 13.1551 21.7727 13.8237C21.6744 14.4635 21.5422 15.0684 21.3732 15.4259C21.298 15.5848 21.1844 15.6953 21.1118 15.7586C21.0297 15.8301 20.9376 15.894 20.8476 15.9503C20.667 16.0631 20.4391 16.1794 20.184 16.2967C19.6705 16.5327 18.9791 16.8034 18.179 17.0909C16.5749 17.6672 14.4809 18.3297 12.3786 18.942C10.276 19.5543 8.15256 20.12 6.48855 20.5012C5.65841 20.6913 4.93053 20.8384 4.37219 20.9215C4.09461 20.9629 3.8428 20.9909 3.63375 20.9981C3.52956 21.0017 3.42135 21.0007 3.31801 20.9897C3.22825 20.9801 3.07813 20.9571 2.93034 20.879C2.55283 20.6794 2.38352 20.283 2.29796 20.029C2.19735 19.7303 2.1316 19.3699 2.08737 18.9915C1.99823 18.229 1.98393 17.276 2.01481 16.3293C2.04581 15.3784 2.12326 14.41 2.22477 13.6089C2.27547 13.2087 2.33305 12.8433 2.39556 12.5389C2.45455 12.2515 2.52813 11.9648 2.62681 11.7561C2.69006 11.6222 2.79549 11.3891 2.93187 11.0874C3.27889 10.3197 3.82668 9.10809 4.39189 7.95858C4.78944 7.15001 5.20919 6.34316 5.59601 5.70029C5.78894 5.37967 5.98147 5.08665 6.16583 4.85017C6.33275 4.63605 6.55333 4.3871 6.81547 4.24847C7.31766 3.98292 8.11276 3.56244 9.35833 3.28513C10.5991 3.00891 12.2577 2.8801 14.5102 3.1448C16.8817 3.42347 18.5925 4.53974 19.7019 5.57499C20.2564 6.09242 20.6646 6.59297 20.9359 6.96682C21.0717 7.15405 21.1739 7.31044 21.2436 7.42254ZM7.47169 5.4704C7.94084 5.2223 8.6032 4.87229 9.66379 4.63616C9.82214 4.60091 9.99009 4.56806 10.1681 4.53851C10.1607 4.57543 10.1547 4.61277 10.1501 4.65051C10.1431 4.70809 10.1395 4.76655 10.1395 4.82576C10.1395 5.72917 10.9725 6.46154 12 6.46154C13.0275 6.46154 13.8605 5.72917 13.8605 4.82576C13.8605 4.70142 13.8447 4.58031 13.8148 4.46391C13.9875 4.47989 14.1645 4.49846 14.3461 4.5198C16.3455 4.75475 17.7914 5.6929 18.7459 6.58367C19.1228 6.93526 19.4205 7.27738 19.6421 7.56146C19.5015 7.60464 19.345 7.65229 19.1732 7.70396C18.2997 7.96679 17.0325 8.33376 15.4627 8.74882C12.6028 9.50498 8.74282 10.4196 4.43101 11.1553C4.76117 10.4272 5.18892 9.49514 5.64592 8.56572C6.03751 7.76923 6.43728 7.00314 6.79406 6.41011C6.97297 6.11278 7.1333 5.87212 7.26957 5.69731C7.38403 5.55043 7.45086 5.49078 7.46948 5.47414C7.4759 5.46845 7.47663 5.46779 7.47169 5.4704ZM19.5781 9.02901C19.9065 8.93022 20.1806 8.84575 20.396 8.77844C20.4486 8.956 20.4934 9.17858 20.5277 9.44219C20.5717 9.78089 20.5957 10.1653 20.6025 10.5729C20.4592 10.4833 20.2894 10.4315 20.1074 10.4315C19.5937 10.4315 19.1772 10.8448 19.1772 11.3546C19.1772 11.8644 19.5937 12.2776 20.1074 12.2776C20.2693 12.2776 20.4214 12.2367 20.5539 12.1646C20.5162 12.6824 20.46 13.1809 20.3933 13.615C20.3088 14.1651 20.2158 14.5535 20.1445 14.7524L20.1302 14.7619C20.1224 14.767 20.1137 14.7726 20.1041 14.7786C19.9961 14.846 19.829 14.9339 19.5974 15.0403C19.1378 15.2517 18.4899 15.5066 17.704 15.789C16.1363 16.3522 14.0719 17.0058 11.9856 17.6134C11.7647 17.6778 11.5437 17.7415 11.323 17.8046C11.0997 17.8685 10.8768 17.9316 10.6551 17.9938C10.6538 16.9753 9.82129 16.15 8.7946 16.15C7.76711 16.15 6.93413 16.9766 6.93413 17.9962C6.93413 18.3299 7.02338 18.643 7.17952 18.9131C7.03116 18.9496 6.8853 18.9849 6.74228 19.0191C6.64025 19.0435 6.53965 19.0673 6.44057 19.0905C6.35064 19.1115 6.26201 19.132 6.17474 19.152C5.35829 19.339 4.67089 19.4769 4.16507 19.5523C3.93722 19.5862 3.75905 19.6055 3.62904 19.6124L3.62137 19.5901C3.56448 19.4214 3.51264 19.1678 3.47341 18.832C3.39557 18.166 3.37956 17.2892 3.40942 16.374C3.43912 15.463 3.51344 14.5375 3.60922 13.7816C3.65714 13.4034 3.70955 13.0746 3.7628 12.8152C3.7741 12.7601 3.78506 12.7102 3.79556 12.6651C6.26416 12.2637 8.60036 11.799 10.7081 11.3305C10.6734 11.4795 10.6551 11.6348 10.6551 11.7942C10.6551 12.9275 11.5809 13.8462 12.7229 13.8462C13.8649 13.8462 14.7907 12.9275 14.7907 11.7942C14.7907 11.2929 14.6095 10.8336 14.3086 10.4772C14.8391 10.3437 15.3443 10.213 15.8219 10.0868C17.4088 9.66719 18.6913 9.29583 19.5781 9.02901ZM20.1898 14.7193C20.1948 14.7143 20.196 14.7139 20.1911 14.7182L20.1898 14.7193Z" fill="white"/>
</svg>
