<svg width="24" height="24" viewBox="0 0 24 24" fill="none" xmlns="http://www.w3.org/2000/svg">
<path d="M9.12377 14.4307C8.8002 14.4307 8.63842 14.4307 8.51576 14.4964C8.41714 14.5492 8.33646 14.6307 8.28416 14.7303C8.21911 14.8542 8.21911 15.0177 8.21911 15.3445C8.21911 15.6714 8.21911 15.8348 8.28416 15.9587C8.33646 16.0583 8.41714 16.1398 8.51576 16.1926C8.63842 16.2583 8.8002 16.2583 9.12377 16.2583H9.85488C10.1785 16.2583 10.3402 16.2583 10.4629 16.1926C10.5615 16.1398 10.6422 16.0583 10.6945 15.9587C10.7595 15.8348 10.7595 15.6714 10.7595 15.3445C10.7595 15.0177 10.7595 14.8542 10.6945 14.7303C10.6422 14.6307 10.5615 14.5492 10.4629 14.4964C10.3402 14.4307 10.1785 14.4307 9.85488 14.4307H9.12377Z" fill="#F2F6F9"/>
<path d="M9.26449 11.1073H9.71416C10.1718 11.1073 10.4006 11.1073 10.5548 11.2347C10.5835 11.2584 10.6099 11.285 10.6334 11.3141C10.7595 11.4698 10.7595 11.701 10.7595 12.1633C10.7595 12.6255 10.7595 12.8567 10.6334 13.0124C10.6099 13.0415 10.5835 13.0681 10.5548 13.0918C10.4006 13.2192 10.1718 13.2192 9.71416 13.2192H9.26449C8.80686 13.2192 8.57805 13.2192 8.42386 13.0918C8.3951 13.0681 8.36877 13.0415 8.34524 13.0124C8.21911 12.8567 8.21911 12.6255 8.21911 12.1633C8.21911 11.701 8.21911 11.4698 8.34524 11.3141C8.36877 11.285 8.3951 11.2584 8.42386 11.2347C8.57805 11.1073 8.80686 11.1073 9.26449 11.1073Z" fill="#F2F6F9"/>
<path fill-rule="evenodd" clip-rule="evenodd" d="M11.6041 4.842C11.8425 4.67604 12.1575 4.67604 12.3959 4.842L18.2099 8.88979C18.3988 9.02133 18.5116 9.23829 18.5116 9.47006V12.098L21.6498 13.9187C21.8664 14.0444 22 14.2774 22 14.5298V18.5776C22 18.9668 21.6876 19.2823 21.3023 19.2823H2.69767C2.31236 19.2823 2 18.9668 2 18.5776V14.5298C2 14.2774 2.13357 14.0444 2.3502 13.9187L5.48837 12.098V9.47006C5.48837 9.23829 5.60119 9.02133 5.79012 8.88979L11.6041 4.842ZM17.1163 17.8728V9.84026L12 6.2782L6.88372 9.84026V17.8728H12.4346L12.4346 15.1408C12.4346 14.6093 12.4346 14.3435 12.5981 14.1784C12.7616 14.0132 13.0247 14.0132 13.5509 14.0132H13.9764C14.5026 14.0132 14.7657 14.0132 14.9292 14.1784C15.0927 14.3435 15.0927 14.6093 15.0927 15.1408L15.0927 17.8728H17.1163Z" fill="#F2F6F9"/>
</svg>
