<svg width="24" height="24" viewBox="0 0 24 24" fill="none" xmlns="http://www.w3.org/2000/svg">
<path fill-rule="evenodd" clip-rule="evenodd" d="M10.6129 3.48524C10.184 3.54651 9.88514 3.63074 9.72804 3.7093C9.68384 3.7314 9.61737 3.78627 9.55818 3.95644C9.49711 4.132 9.4677 4.36816 9.4677 4.63565C9.4677 4.79777 9.4784 4.95715 9.49347 5.10073H14.5065C14.5216 4.95715 14.5323 4.79776 14.5323 4.63565C14.5323 4.36815 14.5029 4.13199 14.4418 3.95643C14.3826 3.78626 14.3162 3.73139 14.272 3.70929C14.1149 3.63074 13.816 3.5465 13.3871 3.48524C12.9734 3.42613 12.4901 3.39535 12 3.39535C11.5099 3.39535 11.0267 3.42613 10.6129 3.48524ZM15.9079 5.10073C15.9198 4.95541 15.9276 4.79821 15.9276 4.63565C15.9276 4.28946 15.8925 3.87964 15.7597 3.49803C15.6251 3.11104 15.3686 2.69756 14.896 2.46126C14.5363 2.28141 14.06 2.17185 13.5845 2.10391C13.0938 2.03382 12.5434 2 12 2C11.4566 2 10.9062 2.03383 10.4155 2.10392C9.94 2.17185 9.46369 2.28142 9.10401 2.46127C8.63141 2.69757 8.37488 3.11105 8.24027 3.49803C8.10754 3.87964 8.07235 4.28946 8.07235 4.63565C8.07235 4.79821 8.08018 4.95541 8.09211 5.10073H3.69767C3.31236 5.10073 3 5.41309 3 5.79841C3 6.18372 3.31236 6.49608 3.69767 6.49608H20.3023C20.6876 6.49608 21 6.18372 21 5.79841C21 5.41309 20.6876 5.10073 20.3023 5.10073H15.9079ZM5.86787 8.04997C6.25127 8.08831 6.531 8.4302 6.49266 8.81361C6.24236 11.3166 6.46737 14.1624 6.88527 16.4482C7.09405 17.5902 7.34725 18.5716 7.60347 19.2864C7.73215 19.6454 7.85496 19.9184 7.96337 20.1052C8.04053 20.2382 8.08909 20.2899 8.10012 20.3026C8.24715 20.3658 8.60265 20.4498 9.26658 20.5107C9.94048 20.5725 10.8469 20.6047 12 20.6047C13.1531 20.6047 14.0595 20.5725 14.7334 20.5107C15.3973 20.4498 15.7529 20.3658 15.8999 20.3026C15.9109 20.2899 15.9595 20.2382 16.0366 20.1052C16.145 19.9184 16.2679 19.6454 16.3965 19.2864C16.6528 18.5716 16.9059 17.5902 17.1147 16.4482C17.5326 14.1624 17.7576 11.3166 17.5073 8.81361C17.469 8.4302 17.7487 8.08831 18.1321 8.04997C18.5155 8.01163 18.8574 8.29136 18.8958 8.67477C19.1623 11.3398 18.9222 14.3208 18.4873 16.6991C18.2698 17.8892 17.9997 18.9491 17.7101 19.7572C17.5658 20.1597 17.41 20.5186 17.2435 20.8055C17.0942 21.0628 16.8727 21.3773 16.5497 21.5387C16.1613 21.733 15.5625 21.8358 14.8609 21.9002C14.1265 21.9676 13.1725 22 12 22C10.8275 22 9.87347 21.9676 9.1391 21.9002C8.43751 21.8358 7.83871 21.733 7.45026 21.5387C7.12734 21.3773 6.90582 21.0628 6.75651 20.8055C6.58997 20.5186 6.4342 20.1597 6.28994 19.7572C6.0003 18.9491 5.73024 17.8892 5.51267 16.6991C5.07785 14.3208 4.83774 11.3398 5.10424 8.67477C5.14258 8.29136 5.48447 8.01163 5.86787 8.04997Z" fill="white"/>
<path fill-rule="evenodd" clip-rule="evenodd" d="M9.93139 9.25106C10.345 9.27307 10.6625 9.62622 10.6405 10.0398C10.5219 12.2699 10.6287 14.7776 10.8236 16.7818C10.8637 17.1941 10.562 17.5608 10.1497 17.6009C9.73748 17.641 9.37077 17.3393 9.33067 16.927C9.13042 14.8681 9.01905 12.2829 9.14261 9.96016C9.16462 9.54653 9.51777 9.22906 9.93139 9.25106ZM14.0689 9.25106C14.4825 9.22912 14.8356 9.54665 14.8576 9.96029C14.9807 12.2829 14.8697 14.868 14.6701 16.9268C14.6301 17.3391 14.2635 17.6409 13.8512 17.6009C13.4389 17.5609 13.1371 17.1943 13.1771 16.782C13.3714 14.7778 13.4779 12.27 13.3597 10.0397C13.3377 9.62609 13.6553 9.27299 14.0689 9.25106Z" fill="white"/>
</svg>
