<svg width="24" height="24" viewBox="0 0 24 24" fill="none" xmlns="http://www.w3.org/2000/svg">
<path fill-rule="evenodd" clip-rule="evenodd" d="M4.04919 9.85017C3.60523 10.7072 3.39535 11.4601 3.39535 12C3.39535 12.5399 3.60523 13.2928 4.04919 14.1498C4.48708 14.9951 5.12739 15.8922 5.92426 16.7115C7.52893 18.3614 9.68502 19.6154 12 19.6154C14.315 19.6154 16.4711 18.3614 18.0757 16.7115C18.8726 15.8922 19.5129 14.9951 19.9508 14.1498C20.3948 13.2928 20.6047 12.5399 20.6047 12C20.6047 11.4601 20.3948 10.7072 19.9508 9.85017C19.5129 9.00488 18.8726 8.10777 18.0757 7.28847C16.4711 5.63864 14.315 4.38462 12 4.38462C9.68502 4.38462 7.52893 5.63864 5.92426 7.28847C5.12739 8.10777 4.48708 9.00488 4.04919 9.85017ZM4.92026 6.32692C6.68238 4.51521 9.17744 3 12 3C14.8226 3 17.3176 4.51521 19.0797 6.32692C19.9663 7.23839 20.6882 8.24512 21.1918 9.21714C21.6893 10.1775 22 11.1553 22 12C22 12.8447 21.6893 13.8225 21.1918 14.7829C20.6882 15.7549 19.9663 16.7616 19.0797 17.6731C17.3176 19.4848 14.8226 21 12 21C9.17744 21 6.68238 19.4848 4.92026 17.6731C4.03374 16.7616 3.31176 15.7549 2.80821 14.7829C2.31072 13.8225 2 12.8447 2 12C2 11.1553 2.31072 10.1775 2.80821 9.21714C3.31176 8.24512 4.03374 7.23839 4.92026 6.32692Z" fill="white"/>
<path fill-rule="evenodd" clip-rule="evenodd" d="M12 16.6154C14.5688 16.6154 16.6512 14.549 16.6512 12C16.6512 9.45099 14.5688 7.38462 12 7.38462C9.43124 7.38462 7.34884 9.45099 7.34884 12C7.34884 14.549 9.43124 16.6154 12 16.6154ZM12 13.8462C13.0275 13.8462 13.8605 13.0196 13.8605 12C13.8605 10.9804 13.0275 10.1538 12 10.1538C10.9725 10.1538 10.1395 10.9804 10.1395 12C10.1395 13.0196 10.9725 13.8462 12 13.8462Z" fill="white"/>
</svg>
