<svg width="24" height="24" viewBox="0 0 24 24" fill="none" xmlns="http://www.w3.org/2000/svg">
<path fill-rule="evenodd" clip-rule="evenodd" d="M15.5987 3.80187C14.8123 3.48163 14.111 3.36187 13.1744 3.58126C12.5656 3.72387 12.0905 4.13315 11.4674 4.66988C11.4279 4.70392 11.3878 4.73847 11.347 4.7735C10.7239 5.30876 9.90941 5.98321 8.77785 5.98321C8.25265 5.98321 7.64613 5.84844 7.0691 5.67463C6.48096 5.49748 5.87355 5.26412 5.3307 5.0352C5.08246 4.93052 4.84581 4.82596 4.62841 4.72693L5.66317 10.1814C5.73314 10.2163 5.8141 10.2563 5.90452 10.3003C6.24126 10.4642 6.70659 10.6821 7.22214 10.8995C7.73921 11.1176 8.29773 11.3312 8.82252 11.4892C9.35841 11.6507 9.81182 11.7394 10.1346 11.7394C10.6989 11.7394 11.1563 11.4205 11.8051 10.8632C11.8568 10.8188 11.91 10.7726 11.9647 10.725C12.5318 10.2319 13.2611 9.59768 14.2175 9.37366C15.4856 9.0766 16.4801 9.25483 17.4744 9.65968C17.9546 9.8552 18.4381 10.1049 18.9388 10.3673C18.9867 10.3924 19.0348 10.4177 19.0832 10.4431C19.1769 10.4922 19.2717 10.542 19.3679 10.5922L18.339 5.16845C17.8794 4.94516 17.465 4.72765 17.0879 4.52975C17.039 4.50407 16.9907 4.47873 16.943 4.45374C16.4369 4.18848 16.0089 3.96889 15.5987 3.80187ZM5.98512 11.8784C6.20252 11.9774 6.43917 12.082 6.68741 12.1867C7.23026 12.4156 7.83767 12.649 8.42581 12.8261C9.00284 12.9999 9.60936 13.1347 10.1346 13.1347C11.2661 13.1347 12.0806 12.4602 12.7037 11.925C12.7445 11.89 12.7846 11.8554 12.8241 11.8214C13.4472 11.2846 13.9223 10.8754 14.5311 10.7327C15.4677 10.5134 16.169 10.6331 16.9554 10.9533C17.3656 11.1204 17.7936 11.34 18.2997 11.6052C18.3474 11.6302 18.3957 11.6556 18.4446 11.6812C18.9078 11.9243 19.4274 12.197 20.0179 12.4737C20.2535 12.5841 20.5307 12.5523 20.7356 12.3913C20.9406 12.2304 21.0389 11.9673 20.9901 11.7101L19.6334 4.55865C19.5915 4.33829 19.4471 4.15163 19.2452 4.05703C18.6844 3.79428 18.1917 3.53571 17.7265 3.29155C17.6781 3.26616 17.63 3.24092 17.5821 3.21585C17.0814 2.95344 16.5978 2.70372 16.1177 2.5082C15.1234 2.10335 14.1288 1.92512 12.8607 2.22218C11.9044 2.4462 11.1751 3.08041 10.6079 3.57354C10.5533 3.62107 10.5001 3.6673 10.4484 3.71172C9.7996 4.26905 9.34218 4.58788 8.77785 4.58788C8.45511 4.58788 8.0017 4.49918 7.46581 4.33776C6.94102 4.17969 6.38251 3.9661 5.86543 3.74806C5.34988 3.53066 4.88455 3.31267 4.54781 3.14882C4.3797 3.06703 4.2443 2.99905 4.15148 2.95181C4.10508 2.9282 4.06936 2.90979 4.04556 2.89745L4.01897 2.88361L4.01268 2.88031L4.01134 2.87961C4.01131 2.87959 4.01136 2.87962 4.01134 2.87961C3.77592 2.75555 3.49059 2.77803 3.2773 2.93762C3.06399 3.09724 2.96013 3.36575 3.01002 3.62869L6.40179 21.5074C6.47359 21.8859 6.83632 22.134 7.21197 22.0617C7.58762 21.9894 7.83394 21.6239 7.76214 21.2454L5.98512 11.8784Z" fill="white"/>
</svg>
