<svg width="24" height="24" viewBox="0 0 24 24" fill="none" xmlns="http://www.w3.org/2000/svg">
<path fill-rule="evenodd" clip-rule="evenodd" d="M15.1643 2.90943L15.164 2.91052L15.1623 2.91608L15.1547 2.94058C15.1479 2.9627 15.1378 2.99615 15.1249 3.03971C15.0991 3.12686 15.0625 3.25418 15.0199 3.41178C14.9344 3.72781 14.8262 4.1615 14.7338 4.63482C14.6409 5.11054 14.5669 5.61211 14.545 6.06735C14.5224 6.53785 14.5596 6.89011 14.6391 7.10599C14.9276 7.88835 15.1516 8.01891 15.4952 8.21917C15.6739 8.32338 15.8851 8.44647 16.1546 8.69011C16.2918 8.81416 16.3548 8.96062 16.3823 9.03329C16.4151 9.11968 16.4356 9.20664 16.4497 9.28083C16.4779 9.43017 16.4939 9.60522 16.5034 9.78661C16.5227 10.1538 16.5198 10.6347 16.5042 11.1773C16.4729 12.264 16.3882 13.668 16.3045 15.0564L16.3039 15.0656C16.2196 16.4649 16.1362 17.8477 16.1057 18.9098C16.0903 19.4427 16.0889 19.8776 16.1051 20.1862C16.1097 20.2747 16.1155 20.3461 16.1217 20.402C16.2438 20.4656 16.4162 20.5206 16.6204 20.5575C16.7507 20.5811 16.8697 20.5931 16.9557 20.5991C16.9983 20.602 17.0317 20.6034 17.0531 20.6041L17.0754 20.6046L17.0763 20.6047H17.0774L17.0784 20.6046L17.1007 20.6041C17.122 20.6034 17.1554 20.602 17.198 20.5991C17.2841 20.5931 17.403 20.5811 17.5334 20.5575C17.7376 20.5206 17.91 20.4656 18.0321 20.402C18.0383 20.3461 18.0441 20.2747 18.0487 20.1862C18.0649 19.8776 18.0635 19.4427 18.0481 18.9098C18.0176 17.8477 17.9342 16.4649 17.8499 15.0656L17.8493 15.0564C17.7656 13.668 17.6809 12.264 17.6496 11.1773C17.634 10.6347 17.6311 10.1538 17.6504 9.78661C17.6599 9.60522 17.6759 9.43017 17.7041 9.28083C17.7182 9.20664 17.7387 9.11968 17.7715 9.03329C17.799 8.96062 17.862 8.81416 17.9992 8.69011C18.2687 8.44647 18.4798 8.32338 18.6586 8.21917C19.0022 8.01891 19.2262 7.88835 19.5146 7.10599C19.5942 6.89011 19.6314 6.53785 19.6088 6.06735C19.5869 5.61211 19.5129 5.11054 19.42 4.63482C19.3276 4.1615 19.2194 3.72781 19.1339 3.41178C19.0913 3.25418 19.0547 3.12686 19.0289 3.03971C19.016 2.99615 19.0059 2.9627 18.9991 2.94058L18.9915 2.91608L18.9895 2.90956C18.8736 2.54246 19.0748 2.14999 19.4391 2.03309C19.8034 1.91616 20.1928 2.119 20.3088 2.48615L19.6492 2.69786C20.3088 2.48615 20.3088 2.48615 20.3088 2.48615L20.31 2.48992L20.3126 2.49839L20.3221 2.52894C20.3301 2.5552 20.3416 2.59305 20.3558 2.64125C20.3843 2.73759 20.424 2.87553 20.4698 3.04497C20.5612 3.383 20.6781 3.85047 20.7786 4.36551C20.8786 4.87815 20.9654 5.45215 20.9917 5.99981C21.0174 6.5322 20.9902 7.11017 20.8126 7.59196C20.3387 8.87734 19.5641 9.33527 19.1521 9.57889C19.115 9.60078 19.0809 9.62095 19.0502 9.63983C19.0438 9.69645 19.0378 9.76937 19.0331 9.86042C19.0168 10.1691 19.0183 10.6039 19.0336 11.1368C19.0642 12.1989 19.1475 13.5817 19.2319 14.981L19.2325 14.9904C19.3162 16.3787 19.4009 17.7827 19.4322 18.8693C19.4478 19.412 19.4507 19.8928 19.4314 20.26C19.4218 20.4414 19.4059 20.6165 19.3776 20.7658C19.3636 20.84 19.343 20.927 19.3103 21.0134C19.2827 21.086 19.2198 21.2325 19.0826 21.3565C18.6769 21.7233 18.131 21.8671 17.7779 21.9309C17.5867 21.9655 17.4163 21.9825 17.2934 21.9911C17.2314 21.9954 17.1804 21.9976 17.1435 21.9988C17.125 21.9993 17.11 21.9996 17.0987 21.9998L17.0848 22L17.0801 22L17.0772 22H17.0762L17.0737 22L17.0689 22L17.055 21.9998C17.0438 21.9996 17.0288 21.9993 17.0103 21.9988C16.9733 21.9976 16.9223 21.9954 16.8604 21.9911C16.7375 21.9825 16.5671 21.9655 16.3759 21.9309C16.0228 21.8671 15.4769 21.7233 15.0712 21.3565C14.934 21.2325 14.8711 21.086 14.8435 21.0134C14.8107 20.927 14.7902 20.84 14.7761 20.7658C14.7479 20.6165 14.732 20.4414 14.7224 20.26C14.7031 19.8928 14.706 19.412 14.7216 18.8693C14.7529 17.7827 14.8376 16.3787 14.9213 14.9903L14.9219 14.981C15.0063 13.5817 15.0896 12.1989 15.1202 11.1368C15.1355 10.6039 15.137 10.1691 15.1207 9.86042C15.1159 9.76937 15.11 9.69645 15.1036 9.63983C15.0729 9.62095 15.0388 9.60078 15.0017 9.57889C14.5897 9.33527 13.8151 8.87734 13.3412 7.59196C13.1636 7.11017 13.1364 6.5322 13.162 5.99981C13.1884 5.45215 13.2751 4.87815 13.3752 4.36551C13.4757 3.85047 13.5926 3.383 13.684 3.04497C13.7298 2.87553 13.7695 2.73759 13.798 2.64125C13.8122 2.59305 13.8237 2.5552 13.8317 2.52894L13.8411 2.49839L13.8438 2.48992L13.8449 2.48636C13.8449 2.48636 13.845 2.48615 14.5046 2.69786L13.8449 2.48636C13.9609 2.11922 14.3504 1.91616 14.7147 2.03308C15.079 2.14999 15.2803 2.54233 15.1643 2.90943ZM6.71015 2.01428C6.75509 2.00504 6.80162 2.00019 6.84927 2.00019C6.87395 2.00019 6.89856 2.0005 6.9231 2.00111C6.94764 2.0005 6.97225 2.00019 6.99694 2.00019C7.04459 2.00019 7.09112 2.00504 7.13606 2.01428C7.96116 2.09599 8.62926 2.5246 9.14026 3.08968C9.68233 3.68911 10.0718 4.46464 10.3389 5.24066C10.6076 6.02162 10.7658 6.84249 10.8224 7.56665C10.8769 8.26525 10.8443 8.96492 10.6582 9.4576C10.3562 10.2574 9.99276 10.7164 9.58679 11.0374C9.41548 11.1728 9.24442 11.2766 9.11465 11.3553C9.10278 11.3625 9.09125 11.3695 9.0801 11.3763C9.0035 11.423 8.94152 11.4617 8.888 11.4987C8.88307 11.5385 8.8782 11.5889 8.87401 11.6512C8.85708 11.9031 8.85683 12.2607 8.87061 12.705C8.89805 13.5896 8.97805 14.737 9.05957 15.9046L9.06036 15.9159C9.14096 17.0702 9.22289 18.2437 9.25127 19.1585C9.26544 19.6153 9.26703 20.028 9.24538 20.3502C9.23469 20.5093 9.21695 20.6695 9.18488 20.8111C9.16881 20.8821 9.14532 20.966 9.10857 21.0503C9.07483 21.1276 9.0096 21.2533 8.88636 21.3621C8.53523 21.672 8.08594 21.8177 7.75538 21.8925C7.51819 21.9461 7.29734 21.9728 7.13449 21.9862C7.09003 21.9953 7.04402 22 6.99692 22L6.99509 22L6.99261 22L6.98578 21.9999L6.96483 21.9996C6.95355 21.9994 6.93956 21.9991 6.9231 21.9986C6.90665 21.9991 6.89266 21.9994 6.88138 21.9996L6.86043 21.9999L6.8536 22L6.85112 22L6.85013 22C6.80302 22 6.75618 21.9953 6.71171 21.9862C6.54887 21.9728 6.32801 21.9461 6.09083 21.8925C5.76027 21.8177 5.31098 21.672 4.95985 21.3621C4.83661 21.2533 4.77138 21.1276 4.73764 21.0503C4.70089 20.966 4.6774 20.8821 4.66133 20.8111C4.62926 20.6695 4.61152 20.5093 4.60083 20.3502C4.57917 20.028 4.58076 19.6153 4.59494 19.1585C4.62331 18.2437 4.70525 17.0702 4.78585 15.9159L4.78664 15.9046C4.86816 14.737 4.94816 13.5896 4.9756 12.705C4.98938 12.2607 4.98913 11.9031 4.9722 11.6512C4.96801 11.5889 4.96313 11.5385 4.95821 11.4987C4.90469 11.4617 4.84271 11.423 4.76611 11.3763C4.75496 11.3695 4.74343 11.3625 4.73156 11.3553C4.60179 11.2766 4.43073 11.1728 4.25942 11.0374C3.85345 10.7164 3.49005 10.2574 3.188 9.4576C3.00193 8.96492 2.96933 8.26525 3.02386 7.56665C3.08038 6.84249 3.23861 6.02162 3.50733 5.24066C3.77436 4.46464 4.16388 3.68911 4.70595 3.08968C5.21695 2.5246 5.88505 2.09599 6.71015 2.01428ZM6.9231 20.6021C6.81255 20.5965 6.60916 20.5797 6.39414 20.531C6.22839 20.4935 6.09342 20.4453 5.99447 20.3935C5.99016 20.3562 5.98595 20.3106 5.98227 20.2559C5.96534 20.004 5.96509 19.6464 5.97887 19.2021C6.00631 18.3175 6.08631 17.1701 6.16783 16.0025L6.16862 15.9912C6.24922 14.8368 6.33115 13.6634 6.35953 12.7486C6.3737 12.2918 6.37529 11.8791 6.35364 11.5569C6.34295 11.3978 6.32521 11.2376 6.29314 11.0959C6.27707 11.025 6.25358 10.9411 6.21682 10.8568C6.18309 10.7795 6.11786 10.6538 5.99462 10.545C5.81231 10.3841 5.62555 10.2694 5.48212 10.182C5.47415 10.1772 5.4663 10.1724 5.45857 10.1677C5.31752 10.0819 5.21568 10.0199 5.11411 9.9396C4.93183 9.79548 4.70699 9.55685 4.48205 8.96127C4.40698 8.76248 4.35442 8.31382 4.4042 7.67607C4.45199 7.06388 4.58753 6.36037 4.81552 5.6978C5.04521 5.0303 5.35534 4.44312 5.72934 4.02954C6.08951 3.63126 6.48313 3.41833 6.9231 3.39727C7.36308 3.41833 7.7567 3.63126 8.11687 4.02954C8.49087 4.44312 8.801 5.0303 9.03069 5.6978C9.25867 6.36037 9.39422 7.06388 9.44201 7.67607C9.49179 8.31382 9.43923 8.76248 9.36416 8.96127C9.13922 9.55685 8.91438 9.79548 8.7321 9.9396C8.63053 10.0199 8.52869 10.0819 8.38764 10.1677C8.37991 10.1724 8.37206 10.1772 8.36409 10.182C8.22066 10.2694 8.0339 10.3841 7.85159 10.545C7.72835 10.6538 7.66312 10.7795 7.62938 10.8568C7.59263 10.9411 7.56914 11.025 7.55307 11.0959C7.521 11.2376 7.50326 11.3978 7.49257 11.5569C7.47092 11.8791 7.47251 12.2918 7.48668 12.7486C7.51505 13.6634 7.59699 14.8369 7.67759 15.9912L7.67838 16.0025C7.7599 17.1701 7.8399 18.3175 7.86734 19.2021C7.88112 19.6464 7.88087 20.004 7.86394 20.2559C7.86026 20.3106 7.85605 20.3562 7.85173 20.3935C7.75279 20.4453 7.61782 20.4935 7.45207 20.531C7.23705 20.5797 7.03366 20.5965 6.9231 20.6021ZM17.0769 2.00019C17.4592 2.00019 17.7692 2.31254 17.7692 2.69786V6.41875C17.7692 6.80406 17.4592 7.11642 17.0769 7.11642C16.6945 7.11642 16.3846 6.80406 16.3846 6.41875V2.69786C16.3846 2.31254 16.6945 2.00019 17.0769 2.00019Z" fill="white"/>
</svg>
