<svg width="24" height="24" viewBox="0 0 24 24" fill="none" xmlns="http://www.w3.org/2000/svg">
<path fill-rule="evenodd" clip-rule="evenodd" d="M13.6734 2.42338C14.2379 1.85888 21.0121 1.85887 21.5766 2.42338C22.1411 2.9879 22.1411 9.76209 21.5766 10.3266C21.0121 10.8911 14.2379 10.8911 13.6734 10.3266C13.1089 9.76209 13.1089 2.98789 13.6734 2.42338ZM14.7235 3.85385C14.7358 3.72794 14.7487 3.61391 14.7618 3.51185C14.8639 3.49869 14.9779 3.4858 15.1039 3.47351C15.7938 3.4062 16.6989 3.3703 17.625 3.3703C18.5511 3.3703 19.4562 3.4062 20.1461 3.47351C20.2721 3.4858 20.3861 3.49869 20.4882 3.51185C20.5013 3.61391 20.5142 3.72794 20.5265 3.85386C20.5938 4.54382 20.6297 5.44889 20.6297 6.375C20.6297 7.3011 20.5938 8.20617 20.5265 8.89614C20.5142 9.02205 20.5013 9.13609 20.4881 9.23815C20.3861 9.25131 20.2721 9.2642 20.1461 9.27649C19.4562 9.3438 18.5511 9.3797 17.625 9.3797C16.6989 9.3797 15.7938 9.3438 15.1039 9.27649C14.9779 9.2642 14.8639 9.25131 14.7618 9.23815C14.7487 9.13609 14.7358 9.02205 14.7235 8.89614C14.6562 8.20617 14.6203 7.3011 14.6203 6.37499C14.6203 5.44889 14.6562 4.54382 14.7235 3.85385Z" fill="#F2F6F9"/>
<path fill-rule="evenodd" clip-rule="evenodd" d="M13.6734 13.6703C14.2379 13.1058 21.0121 13.1058 21.5766 13.6703C22.1411 14.2348 22.1411 21.009 21.5766 21.5735C21.0121 22.1381 14.2379 22.1381 13.6734 21.5735C13.1089 21.009 13.1089 14.2348 13.6734 13.6703ZM14.7235 15.1008C14.7358 14.9749 14.7487 14.8608 14.7618 14.7588C14.8639 14.7456 14.9779 14.7327 15.1039 14.7204C15.7938 14.6531 16.6989 14.6172 17.625 14.6172C18.5511 14.6172 19.4562 14.6531 20.1461 14.7204C20.2721 14.7327 20.3861 14.7456 20.4882 14.7588C20.5013 14.8608 20.5142 14.9749 20.5265 15.1008C20.5938 15.7908 20.6297 16.6958 20.6297 17.6219C20.6297 18.548 20.5938 19.4531 20.5265 20.1431C20.5142 20.269 20.5013 20.383 20.4881 20.4851C20.3861 20.4982 20.2721 20.5111 20.1461 20.5234C19.4562 20.5907 18.5511 20.6266 17.625 20.6266C16.6989 20.6266 15.7938 20.5907 15.1039 20.5234C14.9779 20.5111 14.8639 20.4982 14.7618 20.4851C14.7487 20.383 14.7358 20.269 14.7235 20.1431C14.6562 19.4531 14.6203 18.548 14.6203 17.6219C14.6203 16.6958 14.6562 15.7907 14.7235 15.1008Z" fill="#F2F6F9"/>
<path fill-rule="evenodd" clip-rule="evenodd" d="M2.42259 2.42338C2.98711 1.85888 9.7613 1.85887 10.3258 2.42338C10.8903 2.9879 10.8903 9.76209 10.3258 10.3266C9.7613 10.8911 2.98711 10.8911 2.42259 10.3266C1.85808 9.76209 1.85808 2.98789 2.42259 2.42338ZM3.47272 3.85385C3.485 3.72794 3.49789 3.61391 3.51105 3.51185C3.61311 3.49869 3.72715 3.4858 3.85306 3.47351C4.54303 3.4062 5.4481 3.3703 6.37421 3.3703C7.30031 3.3703 8.20538 3.4062 8.89535 3.47351C9.02126 3.4858 9.1353 3.49869 9.23736 3.51185C9.25052 3.61391 9.26341 3.72794 9.27569 3.85386C9.34301 4.54382 9.37891 5.44889 9.37891 6.375C9.37891 7.3011 9.34301 8.20617 9.27569 8.89614C9.26341 9.02205 9.25051 9.13609 9.23736 9.23815C9.1353 9.25131 9.02126 9.2642 8.89535 9.27649C8.20538 9.3438 7.30031 9.3797 6.3742 9.3797C5.4481 9.3797 4.54303 9.3438 3.85306 9.27649C3.72715 9.2642 3.61311 9.25131 3.51105 9.23815C3.4979 9.13609 3.485 9.02205 3.47272 8.89614C3.40541 8.20617 3.3695 7.3011 3.3695 6.37499C3.3695 5.44889 3.4054 4.54382 3.47272 3.85385Z" fill="#F2F6F9"/>
<path fill-rule="evenodd" clip-rule="evenodd" d="M2.42259 13.6703C2.98711 13.1058 9.7613 13.1058 10.3258 13.6703C10.8903 14.2348 10.8903 21.009 10.3258 21.5735C9.7613 22.1381 2.98711 22.1381 2.42259 21.5735C1.85808 21.009 1.85808 14.2348 2.42259 13.6703ZM3.47272 15.1008C3.485 14.9749 3.49789 14.8608 3.51105 14.7588C3.61311 14.7456 3.72715 14.7327 3.85306 14.7204C4.54303 14.6531 5.4481 14.6172 6.37421 14.6172C7.30031 14.6172 8.20538 14.6531 8.89535 14.7204C9.02126 14.7327 9.1353 14.7456 9.23736 14.7588C9.25052 14.8608 9.26341 14.9749 9.27569 15.1008C9.34301 15.7908 9.37891 16.6958 9.37891 17.6219C9.37891 18.548 9.34301 19.4531 9.27569 20.1431C9.26341 20.269 9.25051 20.383 9.23736 20.4851C9.1353 20.4982 9.02126 20.5111 8.89535 20.5234C8.20538 20.5907 7.30031 20.6266 6.3742 20.6266C5.4481 20.6266 4.54303 20.5907 3.85306 20.5234C3.72715 20.5111 3.61311 20.4982 3.51105 20.4851C3.4979 20.383 3.485 20.269 3.47272 20.1431C3.40541 19.4531 3.3695 18.548 3.3695 17.6219C3.3695 16.6958 3.4054 15.7907 3.47272 15.1008Z" fill="#F2F6F9"/>
</svg>
