<svg width="24" height="24" viewBox="0 0 24 24" fill="none" xmlns="http://www.w3.org/2000/svg">
<path fill-rule="evenodd" clip-rule="evenodd" d="M11.2113 2.04774C11.322 1.98592 11.5463 1.86719 11.801 1.86719C12.0558 1.86719 12.28 1.98592 12.3907 2.04774C12.5365 2.12916 12.695 2.23767 12.857 2.35874C13.1833 2.60261 13.5816 2.94127 14.0186 3.33538C14.8957 4.12639 15.9738 5.18173 17.0277 6.25233C18.083 7.32424 19.1215 8.419 19.921 9.29219C20.3205 9.72839 20.6632 10.1125 20.9197 10.4125C21.0476 10.5621 21.1576 10.6948 21.2438 10.8049C21.3184 10.9003 21.4086 11.0202 21.4653 11.1286C21.5353 11.2624 21.5722 11.4125 21.5945 11.5188C21.6201 11.6408 21.6412 11.7808 21.6592 11.9299C21.6952 12.2291 21.7231 12.6038 21.7443 13.0211C21.7868 13.8578 21.8044 14.904 21.8005 15.9409C21.7966 16.978 21.7713 18.0158 21.7269 18.8363C21.7048 19.2455 21.6775 19.6091 21.6445 19.8949C21.6281 20.0371 21.6092 20.1696 21.5868 20.2833C21.5686 20.3757 21.5355 20.5272 21.4659 20.661C21.3565 20.8712 21.175 20.9711 21.1263 20.9979L21.1251 20.9986C21.0459 21.0422 20.9631 21.0747 20.8929 21.0991C20.7495 21.149 20.5716 21.1946 20.3771 21.2367C19.9829 21.3221 19.4465 21.4089 18.8131 21.4895C17.5429 21.6512 15.8381 21.7936 14.0107 21.8459C13.2882 21.8666 12.5451 21.8732 11.801 21.8613C11.0569 21.8732 10.3139 21.8666 9.59132 21.8459C7.76394 21.7936 6.0592 21.6512 4.78897 21.4895C4.15558 21.4089 3.61914 21.3221 3.22498 21.2367C3.03045 21.1946 2.85259 21.149 2.70912 21.0991C2.63896 21.0747 2.55617 21.0422 2.47694 20.9986L2.47578 20.9979C2.42703 20.9711 2.24559 20.8712 2.13615 20.661C2.06655 20.5272 2.03342 20.3757 2.01523 20.2833C1.99285 20.1696 1.97398 20.0371 1.95756 19.8949C1.92459 19.6091 1.89727 19.2455 1.87513 18.8363C1.83073 18.0158 1.80541 16.978 1.80154 15.9409C1.79768 14.904 1.81524 13.8578 1.85777 13.0211C1.87897 12.6038 1.90685 12.2291 1.94288 11.9299C1.96084 11.7808 1.98195 11.6408 2.00756 11.5188C2.0299 11.4125 2.06678 11.2624 2.13675 11.1286C2.1934 11.0202 2.28365 10.9003 2.35828 10.8049C2.44443 10.6948 2.55441 10.5621 2.68234 10.4125C2.93884 10.1125 3.28158 9.72839 3.68101 9.29219C4.48059 8.419 5.51908 7.32424 6.57434 6.25233C7.6283 5.18173 8.70638 4.12639 9.58349 3.33538C10.0205 2.94127 10.4188 2.60261 10.7451 2.35874C10.907 2.23767 11.0656 2.12916 11.2113 2.04774ZM3.38272 11.7638C3.38018 11.7738 3.37691 11.7876 3.37311 11.8057C3.35894 11.8731 3.34355 11.9694 3.32822 12.0968C3.29767 12.3504 3.27178 12.6892 3.25132 13.0919C3.2105 13.8949 3.19308 14.9142 3.19688 15.9357C3.20069 16.9569 3.22566 17.9703 3.26844 18.7609C3.28989 19.1574 3.31538 19.4893 3.34372 19.7349C3.34787 19.7709 3.35199 19.8043 3.35606 19.835C3.40361 19.8468 3.45822 19.8595 3.52027 19.873C3.85943 19.9464 4.35193 20.0272 4.96516 20.1053C6.01307 20.2387 7.38123 20.3599 8.87366 20.424C8.87053 20.3618 8.86729 20.2965 8.86398 20.2285C8.83582 19.6507 8.80196 18.8744 8.77936 18.0834C8.75682 17.2948 8.74517 16.4814 8.7625 15.833C8.77112 15.5107 8.78724 15.2141 8.81545 14.976C8.82943 14.858 8.8482 14.7381 8.87546 14.6295C8.89545 14.5499 8.94452 14.3658 9.07523 14.2089C9.23077 14.0222 9.46225 13.9088 9.60157 13.8467C9.77712 13.7685 9.98706 13.6963 10.213 13.6347C10.6639 13.5117 11.2305 13.417 11.801 13.417C12.3715 13.417 12.9382 13.5117 13.3891 13.6347C13.615 13.6963 13.8249 13.7685 14.0005 13.8467C14.1398 13.9088 14.3713 14.0222 14.5268 14.2089C14.6575 14.3658 14.7066 14.5499 14.7266 14.6295C14.7538 14.7381 14.7726 14.858 14.7866 14.976C14.8148 15.2141 14.8309 15.5107 14.8395 15.833C14.8569 16.4814 14.8452 17.2948 14.8227 18.0834C14.8001 18.8744 14.7662 19.6507 14.7381 20.2285C14.7348 20.2965 14.7315 20.3618 14.7284 20.424C16.2208 20.3599 17.589 20.2387 18.6369 20.1053C19.2501 20.0272 19.7426 19.9464 20.0818 19.873C20.1438 19.8595 20.1984 19.8468 20.246 19.835C20.2501 19.8043 20.2542 19.7709 20.2583 19.7349C20.2867 19.4893 20.3122 19.1574 20.3336 18.7609C20.3764 17.9703 20.4014 16.9569 20.4052 15.9357C20.409 14.9142 20.3916 13.8949 20.3507 13.0919C20.3303 12.6892 20.3044 12.3504 20.2738 12.0968C20.2585 11.9694 20.2431 11.8731 20.2289 11.8057C20.2251 11.7876 20.2219 11.7738 20.2193 11.7638C20.2067 11.7461 20.1835 11.7142 20.1449 11.6649C20.0762 11.5771 19.9806 11.4613 19.8592 11.3193C19.617 11.0361 19.286 10.6648 18.892 10.2345C18.1047 9.37476 17.0778 8.2922 16.0334 7.23123C14.9876 6.16894 13.9315 5.13582 13.0841 4.37159C12.6588 3.98808 12.2973 3.68243 12.0216 3.47639C11.934 3.41088 11.8606 3.3597 11.801 3.32112C11.7414 3.3597 11.6681 3.41088 11.5804 3.47639C11.3048 3.68243 10.9432 3.98808 10.518 4.37159C9.67056 5.13582 8.61448 6.16894 7.56869 7.23123C6.52421 8.2922 5.49737 9.37476 4.71009 10.2345C4.31609 10.6648 3.98503 11.0361 3.74284 11.3193C3.62143 11.4613 3.52585 11.5771 3.45715 11.6649C3.41854 11.7142 3.3953 11.7461 3.38272 11.7638Z" fill="white"/>
</svg>
