<svg width="24" height="24" viewBox="0 0 24 24" fill="none" xmlns="http://www.w3.org/2000/svg">
<path fill-rule="evenodd" clip-rule="evenodd" d="M4.24944 7.67869C5.59371 6.8828 7.37797 6.65112 9.2093 6.65112C9.59462 6.65112 9.90698 6.96348 9.90698 7.3488C9.90698 7.73411 9.59462 8.04647 9.2093 8.04647C7.44436 8.04647 5.97281 8.27991 4.96033 8.87937C4.015 9.43907 3.39535 10.3607 3.39535 12C3.39535 13.6392 4.015 14.5609 4.96033 15.1205C5.97281 15.72 7.44436 15.9534 9.2093 15.9534C9.59462 15.9534 9.90698 16.2658 9.90698 16.6511C9.90698 17.0364 9.59462 17.3488 9.2093 17.3488C7.37797 17.3488 5.59371 17.1171 4.24944 16.3212C2.83803 15.4856 2 14.0816 2 12C2 9.91828 2.83803 8.51434 4.24944 7.67869ZM14.093 7.3488C14.093 6.96348 14.4054 6.65112 14.7907 6.65112C16.622 6.65112 18.4063 6.8828 19.7506 7.67869C21.162 8.51434 22 9.91828 22 12C22 14.0816 21.162 15.4856 19.7506 16.3212C18.4063 17.1171 16.622 17.3488 14.7907 17.3488C14.4054 17.3488 14.093 17.0364 14.093 16.6511C14.093 16.2658 14.4054 15.9534 14.7907 15.9534C16.5556 15.9534 18.0272 15.72 19.0397 15.1205C19.985 14.5609 20.6047 13.6392 20.6047 12C20.6047 10.3607 19.985 9.43907 19.0397 8.87937C18.0272 8.27991 16.5556 8.04647 14.7907 8.04647C14.4054 8.04647 14.093 7.73411 14.093 7.3488Z" fill="#F2F6F9"/>
<path fill-rule="evenodd" clip-rule="evenodd" d="M7.00003 12C7.00003 11.5857 7.33582 11.25 7.75003 11.25L16.25 11.25C16.6642 11.25 17 11.5857 17 12C17 12.4142 16.6642 12.75 16.25 12.75L7.75003 12.75C7.33582 12.75 7.00003 12.4142 7.00003 12Z" fill="#F2F6F9"/>
</svg>
