<svg width="24" height="24" viewBox="0 0 24 24" fill="none" xmlns="http://www.w3.org/2000/svg">
<path fill-rule="evenodd" clip-rule="evenodd" d="M11.6667 6.63641C9.75677 6.63641 8.20845 8.19326 8.20845 10.1137C8.20845 12.0342 9.75677 13.591 11.6667 13.591C13.5767 13.591 15.125 12.0342 15.125 10.1137C15.125 8.19326 13.5767 6.63641 11.6667 6.63641ZM9.59175 10.1137C9.59175 8.96144 10.5207 8.02734 11.6667 8.02734C12.8127 8.02734 13.7417 8.96144 13.7417 10.1137C13.7417 11.266 12.8127 12.2001 11.6667 12.2001C10.5207 12.2001 9.59175 11.266 9.59175 10.1137Z" fill="white"/>
<path fill-rule="evenodd" clip-rule="evenodd" d="M11.1757 21.7323L11.1965 21.7513L11.3273 21.8696C11.5182 22.0424 11.8086 22.0436 12.001 21.8724L12.1328 21.7551L12.154 21.7362L12.2339 21.6642C12.3032 21.6018 12.4031 21.5112 12.5269 21.3976C12.7744 21.1707 13.1179 20.8515 13.5026 20.4822C14.2664 19.7489 15.2134 18.7982 15.8891 17.9746C16.858 16.7935 17.4006 16.0806 18.1842 14.7355C19.0881 13.1839 19.727 11.4025 19.727 9.66753C19.727 5.39286 16.0822 2 11.6667 2C7.25121 2 3.59741 5.39286 3.59741 9.66753C3.59741 11.4025 4.24534 13.1839 5.14924 14.7355C5.93614 16.0863 6.50596 16.7988 7.4761 17.9758C8.14908 18.7923 9.0866 19.7416 9.84267 20.4758C10.2233 20.8455 10.5629 21.1653 10.8074 21.3929C10.9297 21.5067 11.0284 21.5976 11.0967 21.6602L11.1757 21.7323ZM4.98072 9.66751C4.98072 6.24106 7.9331 3.39091 11.6667 3.39091C15.4003 3.39091 18.3527 6.24106 18.3527 9.66751C18.3527 11.0139 17.8689 12.5248 16.9906 14.0325C16.2574 15.2911 15.764 15.9412 14.822 17.0894C14.2013 17.8461 13.3039 18.7499 12.5473 19.4761C12.2096 19.8004 11.9041 20.0853 11.6703 20.3005C11.4391 20.0846 11.1374 19.7994 10.8036 19.4753C10.0543 18.7476 9.16281 17.8424 8.54117 17.0882C7.5861 15.9295 7.07275 15.2854 6.34286 14.0325C5.46458 12.5248 4.98072 11.0139 4.98072 9.66751Z" fill="white"/>
</svg>
