<svg width="24" height="24" viewBox="0 0 24 24" fill="none" xmlns="http://www.w3.org/2000/svg">
<path fill-rule="evenodd" clip-rule="evenodd" d="M20.8156 5.40573C20.9032 5.44506 21.0284 5.51034 21.1393 5.61806C21.301 5.77503 21.3958 5.97497 21.4546 6.12437C21.5196 6.2894 21.5727 6.4784 21.6177 6.67652C21.7078 7.07391 21.7789 7.5717 21.8343 8.12312C21.9455 9.22985 22 10.6198 22 12.0001C22 13.3804 21.9455 14.7703 21.8343 15.877C21.7789 16.4284 21.7078 16.9262 21.6177 17.3236C21.5727 17.5217 21.5196 17.7107 21.4546 17.8758C21.3958 18.0252 21.301 18.2251 21.1394 18.3821C21.0284 18.4898 20.9032 18.5551 20.8156 18.5944C20.7198 18.6374 20.617 18.6718 20.5164 18.7004C20.3153 18.7575 20.0716 18.8053 19.8032 18.8467C19.2634 18.93 18.5575 18.9973 17.7516 19.0503C16.136 19.1567 14.0646 19.2094 12 19.2094C9.93539 19.2094 7.86397 19.1567 6.24834 19.0503C5.44246 18.9973 4.73653 18.93 4.19681 18.8467C3.92839 18.8053 3.68463 18.7575 3.48352 18.7004C3.38296 18.6718 3.2802 18.6374 3.1844 18.5944C3.09672 18.5551 2.97154 18.4898 2.8606 18.382C2.69896 18.2251 2.60417 18.0251 2.54536 17.8757C2.4804 17.7107 2.42725 17.5217 2.38233 17.3236C2.29222 16.9262 2.22115 16.4284 2.16575 15.877C2.05455 14.7703 2 13.3804 2 12.0001C2 10.6198 2.05453 9.22987 2.16573 8.12315C2.22113 7.57173 2.2922 7.07394 2.38231 6.67654C2.42724 6.47842 2.48039 6.28942 2.54536 6.12439C2.60417 5.97499 2.69896 5.77505 2.86062 5.61808C2.97155 5.51036 3.09675 5.44506 3.18443 5.40573C3.28023 5.36276 3.38298 5.32832 3.48354 5.29977C3.68465 5.24266 3.92841 5.19482 4.19684 5.1534C4.73655 5.07011 5.44249 5.00287 6.24837 4.94982C7.864 4.84346 9.93542 4.79077 12 4.79077C14.0646 4.79077 16.136 4.84346 17.7516 4.94982C18.5575 5.00287 19.2634 5.07011 19.8031 5.1534C20.0716 5.19482 20.3153 5.24266 20.5164 5.29977C20.617 5.32832 20.7198 5.36276 20.8156 5.40573ZM3.69422 7.22508C3.64182 7.50973 3.5946 7.85942 3.55409 8.26264C3.44896 9.30895 3.39534 10.6497 3.39535 12.0001C3.39535 13.3505 3.44898 14.6912 3.55411 15.7375C3.60687 16.2626 3.671 16.6969 3.74313 17.015C3.77711 17.1649 3.8098 17.275 3.83823 17.3503C3.84641 17.3528 3.85521 17.3554 3.86467 17.3581C3.98721 17.3929 4.16766 17.4304 4.40964 17.4677C4.89074 17.542 5.55041 17.606 6.33999 17.658C7.91528 17.7617 9.9542 17.814 12 17.814C14.0457 17.814 16.0847 17.7617 17.66 17.658C18.4495 17.606 19.1092 17.542 19.5903 17.4677C19.8323 17.4304 20.0128 17.3929 20.1353 17.3581C20.1448 17.3554 20.1536 17.3528 20.1618 17.3503C20.1902 17.275 20.2229 17.1649 20.2569 17.015C20.329 16.6969 20.3931 16.2626 20.4459 15.7375C20.551 14.6912 20.6047 13.3505 20.6047 12.0001C20.6047 10.6497 20.551 9.30893 20.4459 8.26262C20.4054 7.8594 20.3582 7.50972 20.3058 7.22508C20.1471 7.33829 19.9676 7.46627 19.7711 7.60604C18.9953 8.1581 17.9554 8.89455 16.9006 9.63131C15.8467 10.3674 14.7739 11.1066 13.9334 11.6629C13.5142 11.9403 13.1459 12.1769 12.8639 12.3458C12.7242 12.4296 12.5956 12.5028 12.4877 12.5571C12.4345 12.5839 12.3748 12.612 12.3147 12.6349L12.3129 12.6356C12.275 12.6501 12.1505 12.6977 12 12.6977C11.8495 12.6977 11.725 12.6501 11.6871 12.6356L11.6853 12.6349C11.6252 12.612 11.5655 12.5839 11.5123 12.5571C11.4044 12.5028 11.2758 12.4295 11.136 12.3458C10.8541 12.1769 10.4858 11.9403 10.0666 11.6629C9.22612 11.1066 8.15327 10.3674 7.0994 9.63131C6.04455 8.89455 5.00471 8.1581 4.22884 7.60604C4.03241 7.46627 3.85286 7.33829 3.69422 7.22508ZM18.9833 6.45406C18.6017 6.4123 18.1565 6.37484 17.66 6.34215C16.0847 6.23845 14.0458 6.18612 12 6.18612C9.95423 6.18612 7.91531 6.23845 6.34002 6.34215C5.84349 6.37484 5.39833 6.4123 5.01664 6.45406C5.02368 6.45907 5.03073 6.46409 5.03781 6.46912C5.81177 7.01983 6.84805 7.75375 7.89839 8.48736C8.94972 9.22166 10.0111 9.95284 10.8368 10.4993C11.2506 10.7732 11.5983 10.9962 11.8532 11.1489C11.9082 11.1819 11.9571 11.2105 12 11.2349C12.0428 11.2105 12.0917 11.1819 12.1468 11.1489C12.4016 10.9962 12.7494 10.7732 13.1632 10.4993C13.9888 9.95284 15.0503 9.22166 16.1016 8.48736C17.1519 7.75375 18.1882 7.01984 18.9622 6.46913C18.9693 6.46409 18.9763 6.45907 18.9833 6.45406Z" fill="#F2F6F9"/>
</svg>
