<svg width="24" height="24" viewBox="0 0 24 24" fill="none" xmlns="http://www.w3.org/2000/svg">
<path fill-rule="evenodd" clip-rule="evenodd" d="M21.1414 4.25991C21.0305 4.15219 20.9053 4.08691 20.8176 4.04758C20.7218 4.0046 20.6191 3.97016 20.5185 3.94161C20.3174 3.88451 20.0736 3.83667 19.8052 3.79524C19.2655 3.71195 18.5596 3.64471 17.7537 3.59166C16.1381 3.48531 14.0666 3.43262 12.0021 3.43262C9.93749 3.43262 7.86607 3.48531 6.25044 3.59166C5.44456 3.64471 4.73863 3.71195 4.19891 3.79524C3.93049 3.83667 3.68672 3.88451 3.48562 3.94161C3.38506 3.97016 3.2823 4.0046 3.1865 4.04758C3.09883 4.08691 2.97363 4.15221 2.86269 4.25993C2.70104 4.4169 2.60625 4.61683 2.54743 4.76623C2.48246 4.93126 2.42931 5.12026 2.38439 5.31839C2.29427 5.71578 2.22321 6.21357 2.1678 6.76499C2.05661 7.87172 2.00207 9.26164 2.00208 10.6419C2.00208 12.0222 2.05663 13.4121 2.16782 14.5188C2.22323 15.0703 2.2943 15.568 2.3844 15.9654C2.42933 16.1636 2.48248 16.3526 2.54744 16.5176C2.60625 16.667 2.70103 16.8669 2.86268 17.0239C2.97362 17.1316 3.0988 17.1969 3.18648 17.2362C3.28228 17.2792 3.38503 17.3137 3.48559 17.3422C3.6867 17.3993 3.93046 17.4472 4.19889 17.4886C4.7386 17.5719 5.44454 17.6391 6.25041 17.6922C6.89886 17.7349 8.39314 17.7807 9.28786 17.8057C9.67981 17.8167 10.0021 17.5017 10.0021 17.1096C10.0021 16.7311 9.70071 16.4215 9.32236 16.4109C8.44987 16.3865 6.97349 16.3414 6.34207 16.2998C5.55249 16.2479 4.89282 16.1838 4.41172 16.1096C4.16973 16.0722 3.98929 16.0347 3.86674 15.9999L3.84031 15.9922C3.81188 15.9169 3.77919 15.8067 3.74521 15.6569C3.67308 15.3388 3.60894 14.9044 3.55618 14.3793C3.45105 13.333 3.39743 11.9923 3.39742 10.6419C3.39742 9.29154 3.45104 7.95079 3.55616 6.90448C3.59668 6.50126 3.6439 6.15157 3.6963 5.86693C3.85494 5.98014 4.03449 6.10812 4.23092 6.24788C5.00678 6.79995 6.04663 7.5364 7.10148 8.27315C8.15534 9.00922 9.2282 9.7484 10.0687 10.3047C10.4879 10.5822 10.8562 10.8187 11.1381 10.9877C11.2779 11.0714 11.4065 11.1446 11.5144 11.199C11.5676 11.2258 11.6272 11.2538 11.6874 11.2768L11.6892 11.2775C11.7271 11.292 11.8516 11.3396 12.0021 11.3396C12.1525 11.3396 12.277 11.292 12.3149 11.2775L12.3168 11.2768C12.3769 11.2538 12.4365 11.2258 12.4897 11.199C12.5976 11.1446 12.7263 11.0714 12.866 10.9877C13.148 10.8187 13.5163 10.5822 13.9354 10.3047C14.7759 9.74841 15.8488 9.00922 16.9027 8.27316C17.9575 7.5364 18.9974 6.79995 19.7732 6.24788C19.9696 6.10811 20.1492 5.98013 20.3078 5.86692C20.3602 6.15156 20.4075 6.50125 20.448 6.90446C20.536 7.78032 20.5879 9.25283 20.6025 10.5014C20.607 10.8867 20.9191 11.199 21.3044 11.199C21.6897 11.199 22.0023 10.8867 21.9979 10.5014C21.9832 9.2193 21.9298 7.69528 21.8363 6.76497C21.7809 6.21355 21.7099 5.71576 21.6197 5.31837C21.5748 5.12024 21.5217 4.93124 21.4567 4.76621C21.3979 4.61682 21.3031 4.41688 21.1414 4.25991ZM17.662 4.98401C18.1585 5.01669 18.6037 5.05415 18.9854 5.09592L18.9642 5.11098C18.1902 5.66169 17.154 6.39561 16.1036 7.12921C15.0523 7.86351 13.9909 8.59469 13.1653 9.14116C12.7514 9.41509 12.4037 9.63802 12.1488 9.79073C12.0938 9.82371 12.0449 9.8523 12.002 9.87672C11.9592 9.8523 11.9103 9.82371 11.8552 9.79073C11.6004 9.63802 11.2526 9.41509 10.8388 9.14116C10.0132 8.59469 8.95176 7.86351 7.90042 7.12921C6.85008 6.3956 5.8138 5.66169 5.03984 5.11098L5.01868 5.09592C5.40036 5.05415 5.84552 5.01669 6.34206 4.984C7.91734 4.88031 9.95626 4.82797 12.002 4.82797C14.0478 4.82797 16.0867 4.88031 17.662 4.98401Z" fill="#F2F6F9"/>
<path d="M18.1482 12.2653C18.1482 11.8799 17.8359 11.5676 17.4506 11.5676C17.0652 11.5676 16.7529 11.8799 16.7529 12.2653V15.393H13.6253C13.24 15.393 12.9276 15.7053 12.9276 16.0907C12.9276 16.476 13.24 16.7883 13.6253 16.7883H16.7529V19.8699C16.7529 20.2552 17.0652 20.5676 17.4506 20.5676C17.8359 20.5676 18.1482 20.2552 18.1482 19.8699V16.7883H21.2299C21.6153 16.7883 21.9276 16.476 21.9276 16.0907C21.9276 15.7053 21.6153 15.393 21.2299 15.393H18.1482V12.2653Z" fill="#F2F6F9"/>
</svg>
