<svg width="24" height="24" viewBox="0 0 24 24" fill="none" xmlns="http://www.w3.org/2000/svg">
<path fill-rule="evenodd" clip-rule="evenodd" d="M21.1386 4.32094C21.0277 4.21322 20.9025 4.14794 20.8148 4.10861C20.719 4.06564 20.6163 4.0312 20.5157 4.00265C20.3146 3.94554 20.0708 3.8977 19.8024 3.85628C19.2627 3.77299 18.5568 3.70575 17.7509 3.6527C16.1353 3.54634 14.0638 3.49365 11.9993 3.49365C9.93468 3.49365 7.86327 3.54634 6.24763 3.6527C5.44176 3.70575 4.73582 3.77299 4.19611 3.85628C3.92768 3.8977 3.68392 3.94554 3.48281 4.00265C3.38225 4.0312 3.27949 4.06564 3.1837 4.10861C3.09602 4.14794 2.97082 4.21324 2.85988 4.32096C2.69823 4.47793 2.60344 4.67787 2.54462 4.82727C2.47966 4.9923 2.42651 5.1813 2.38158 5.37942C2.29147 5.77682 2.2204 6.27461 2.165 6.82603C2.0538 7.93275 1.99926 9.32267 1.99927 10.703C1.99927 12.0832 2.05382 13.4732 2.16502 14.5799C2.22042 15.1313 2.29149 15.6291 2.3816 16.0265C2.42652 16.2246 2.47967 16.4136 2.54463 16.5786C2.60344 16.728 2.69823 16.9279 2.85987 17.0849C2.97081 17.1927 3.09599 17.2579 3.18367 17.2973C3.27947 17.3403 3.38223 17.3747 3.48279 17.4033C3.68389 17.4604 3.92766 17.5082 4.19608 17.5496C4.73579 17.6329 5.44173 17.7002 6.24761 17.7532C6.89605 17.7959 8.62723 17.865 9.52194 17.8901C9.9139 17.9011 10.2362 17.5861 10.2362 17.1939C10.2362 16.8154 9.9348 16.5059 9.55644 16.4953C8.68396 16.4709 6.97068 16.4024 6.33926 16.3609C5.54968 16.3089 4.89001 16.2449 4.40891 16.1706C4.16693 16.1333 3.98648 16.0958 3.86394 16.061L3.8375 16.0532C3.80907 15.9779 3.77638 15.8678 3.7424 15.7179C3.67027 15.3998 3.60613 14.9655 3.55337 14.4404C3.44825 13.3941 3.39462 12.0533 3.39462 10.703C3.39461 9.35257 3.44823 8.01183 3.55335 6.96552C3.59387 6.5623 3.64109 6.21261 3.69349 5.92796C3.85213 6.04117 4.03168 6.16915 4.22811 6.30892C5.00397 6.86098 6.04382 7.59743 7.09867 8.33419C8.15253 9.07026 9.22539 9.80944 10.0659 10.3657C10.4851 10.6432 10.8534 10.8798 11.1353 11.0487C11.2751 11.1324 11.4037 11.2056 11.5116 11.26C11.5648 11.2868 11.6244 11.3148 11.6846 11.3378L11.6864 11.3385C11.7243 11.353 11.8488 11.4006 11.9993 11.4006C12.1497 11.4006 12.2742 11.353 12.3121 11.3385L12.314 11.3378C12.3741 11.3149 12.4337 11.2868 12.4869 11.26C12.5948 11.2056 12.7235 11.1324 12.8632 11.0487C13.1452 10.8798 13.5134 10.6432 13.9326 10.3658C14.7731 9.80944 15.846 9.07026 16.8998 8.33419C17.9547 7.59743 18.9945 6.86098 19.7704 6.30892C19.9668 6.16915 20.1464 6.04117 20.305 5.92796C20.3574 6.2126 20.4047 6.56228 20.4452 6.9655C20.5332 7.84135 20.5011 8.68914 20.5157 9.93776C20.5202 10.323 20.8323 10.6353 21.2176 10.6353C21.603 10.6353 21.9156 10.323 21.9111 9.93769C21.8965 8.65561 21.927 7.75631 21.8335 6.826C21.7781 6.27458 21.7071 5.77679 21.6169 5.3794C21.572 5.18128 21.5189 4.99228 21.4539 4.82725C21.3951 4.67785 21.3003 4.47791 21.1386 4.32094ZM17.6592 5.04504C18.1557 5.07773 18.6009 5.11518 18.9826 5.15695L18.9614 5.17201C18.1874 5.72272 17.1512 6.45664 16.1008 7.19025C15.0495 7.92455 13.9881 8.65573 13.1625 9.2022C12.7486 9.47612 12.4009 9.69905 12.146 9.85176C12.091 9.88474 12.0421 9.91334 11.9992 9.93776C11.9564 9.91334 11.9075 9.88474 11.8524 9.85176C11.5976 9.69905 11.2498 9.47612 10.836 9.20219C10.0104 8.65573 8.94895 7.92454 7.89762 7.19025C6.84727 6.45664 5.811 5.72272 5.03704 5.17201L5.01587 5.15695C5.39755 5.11518 5.84271 5.07773 6.33925 5.04504C7.91453 4.94134 9.95345 4.88901 11.9992 4.88901C14.045 4.88901 16.0839 4.94134 17.6592 5.04504Z" fill="#F2F6F9"/>
<path fill-rule="evenodd" clip-rule="evenodd" d="M17.0146 21.0961C19.7684 21.0961 22.0007 18.8638 22.0007 16.11C22.0007 13.3562 19.7684 11.1238 17.0146 11.1238C14.2608 11.1238 12.0285 13.3562 12.0285 16.11C12.0285 18.8638 14.2608 21.0961 17.0146 21.0961ZM20.113 14.8572C20.0959 14.6792 20.0155 14.5066 19.8734 14.3762C19.5681 14.0962 19.0937 14.1166 18.8137 14.4219L16.2821 17.1817L15.003 16.0413C14.6939 15.7656 14.2198 15.7928 13.9441 16.102C13.6685 16.4112 13.6956 16.8853 14.0048 17.1609L15.8358 18.7934C16.1419 19.0663 16.6104 19.0428 16.8876 18.7406L19.9191 15.4358C20.0687 15.2728 20.1325 15.0614 20.113 14.8572Z" fill="#F2F6F9"/>
</svg>
