<svg width="24" height="24" viewBox="0 0 24 24" fill="none" xmlns="http://www.w3.org/2000/svg">
<path d="M20.4675 12.749C20.3907 13.6305 20.1797 14.4716 19.8557 15.2531C19.4253 16.2908 18.7945 17.2263 18.0104 18.0103C17.2264 18.7943 16.291 19.4252 15.2534 19.8555C14.2532 20.2702 13.1553 20.4999 12 20.4999C10.8447 20.4999 9.74688 20.2703 8.74677 19.8555C7.70903 19.4252 6.77364 18.7944 5.98959 18.0103C5.20554 17.2263 4.57468 16.2909 4.14436 15.2531C3.72964 14.253 3.5 13.1552 3.5 11.9999C3.5 10.8446 3.72967 9.74669 4.14442 8.74654C4.57474 7.70886 5.20558 6.77351 5.98959 5.9895C6.77365 5.20544 7.70907 4.57457 8.74683 4.14425C9.52828 3.82021 10.3694 3.60917 11.2509 3.53237C11.6636 3.49643 12 3.16412 12 2.74991C12 2.33569 11.6638 1.99696 11.2507 2.02756C10.1674 2.10781 9.13212 2.36064 8.17228 2.75865C6.95001 3.26548 5.85004 4.00773 4.92893 4.92884C4.00788 5.84989 3.26567 6.94978 2.75884 8.17195C2.26987 9.35105 2 10.644 2 11.9999C2 13.3558 2.26984 14.6486 2.75876 15.8277C3.26559 17.0499 4.00783 18.1499 4.92893 19.071C5.85002 19.9921 6.94997 20.7343 8.1722 21.2411C9.35125 21.7301 10.6441 21.9999 12 21.9999C13.3559 21.9999 14.6489 21.73 15.8279 21.2411C17.0501 20.7342 18.15 19.992 19.0711 19.071C19.9922 18.1499 20.7344 17.0499 21.2413 15.8276C21.6393 14.8678 21.8921 13.8325 21.9723 12.7492C22.0029 12.3362 21.6642 11.9999 21.25 11.9999C20.8358 11.9999 20.5035 12.3363 20.4675 12.749Z" fill="#F2F6F9"/>
<path d="M12.5485 12.4484V7.19748C12.5485 6.75694 12.1914 6.39981 11.7509 6.39981C11.3103 6.39981 10.9532 6.75694 10.9532 7.19748V12.7788C10.9532 12.9904 11.0372 13.1933 11.1868 13.3429L14.4426 16.5987C14.7541 16.9102 15.2592 16.9102 15.5707 16.5987C15.8822 16.2872 15.8822 15.7821 15.5707 15.4706L12.5485 12.4484Z" fill="#F2F6F9"/>
<path d="M20.2283 2.47989C20.3986 2.19794 20.7041 2.02563 21.0335 2.02563C21.5531 2.02563 21.9743 2.44684 21.9743 2.96642V8.56976C21.9743 8.9618 21.6565 9.27961 21.2644 9.27961C20.8724 9.27961 20.5546 8.9618 20.5546 8.56976V4.57489L19.3085 6.55456C18.9029 7.19898 17.964 7.20053 17.5563 6.55745L16.3058 4.58525V8.56458C16.3058 8.95948 15.9857 9.27961 15.5908 9.27961C15.1959 9.27961 14.8757 8.95948 14.8757 8.56458V2.9673C14.8757 2.44723 15.2973 2.02563 15.8174 2.02563C16.1464 2.02563 16.4515 2.19733 16.6223 2.47853L18.4302 5.45573L20.2283 2.47989Z" fill="#F2F6F9"/>
</svg>
