<svg width="24" height="24" viewBox="0 0 24 24" fill="none" xmlns="http://www.w3.org/2000/svg">
<path fill-rule="evenodd" clip-rule="evenodd" d="M5.82993 3.84881C5.82824 3.85454 5.82651 3.86054 5.82473 3.86684C5.79022 3.989 5.75298 4.16912 5.71585 4.41094C5.64204 4.89171 5.57834 5.55111 5.52664 6.34059C5.42349 7.91563 5.37143 9.95435 5.37143 12C5.37143 14.0456 5.42349 16.0844 5.52664 17.6594C5.57834 18.4489 5.64204 19.1083 5.71585 19.5891C5.75298 19.8309 5.79022 20.011 5.82473 20.1332C5.82651 20.1395 5.82824 20.1455 5.82993 20.1512C5.91888 20.1822 6.04951 20.2172 6.22656 20.2529C6.59285 20.3269 7.09371 20.3919 7.69667 20.445C8.89863 20.5509 10.4451 20.6047 12 20.6047C13.5549 20.6047 15.1013 20.5509 16.3033 20.445C16.9063 20.3919 17.4071 20.3269 17.7734 20.2529C17.9505 20.2172 18.0811 20.1822 18.1701 20.1512C18.1717 20.1455 18.1735 20.1394 18.1752 20.1332C18.2098 20.011 18.247 19.8309 18.2841 19.5891C18.3579 19.1083 18.4216 18.4489 18.4734 17.6594C18.5765 16.0844 18.6286 14.0456 18.6286 12C18.6286 9.95435 18.5765 7.91564 18.4734 6.3406C18.4217 5.55112 18.358 4.89172 18.2841 4.41095C18.247 4.16913 18.2098 3.98901 18.1753 3.86685C18.1735 3.86055 18.1717 3.85454 18.1701 3.84882C18.0811 3.81776 17.9505 3.78282 17.7734 3.74705C17.4071 3.67307 16.9062 3.60812 16.3033 3.555C15.1013 3.4491 13.5549 3.39535 12 3.39535C10.4451 3.39535 8.89862 3.44911 7.69667 3.555C7.09371 3.60812 6.59284 3.67307 6.22655 3.74706C6.0495 3.78282 5.91888 3.81776 5.82993 3.84881ZM18.1361 3.75268C18.1361 3.75261 18.1369 3.754 18.1383 3.75706C18.1368 3.75429 18.1361 3.75276 18.1361 3.75268ZM5.86387 20.2473C5.86385 20.2474 5.86311 20.246 5.86171 20.243C5.86319 20.2457 5.86389 20.2472 5.86387 20.2473ZM5.86171 3.75705C5.8631 3.75398 5.86385 3.7526 5.86387 3.75267C5.8639 3.75274 5.8632 3.75427 5.86171 3.75705ZM18.6367 2.53663C18.7884 2.59108 19.0091 2.6844 19.1764 2.85762C19.2833 2.96827 19.3483 3.09345 19.3876 3.18155C19.4305 3.27761 19.4649 3.38064 19.4933 3.48141C19.5502 3.6829 19.5979 3.927 19.6391 4.19559C19.7221 4.73564 19.789 5.44185 19.8418 6.24782C19.9476 7.8637 20 9.93531 20 12C20 14.0647 19.9476 16.1363 19.8417 17.7522C19.789 18.5582 19.722 19.2644 19.6391 19.8044C19.5979 20.073 19.5502 20.3171 19.4933 20.5186C19.4649 20.6194 19.4305 20.7224 19.3876 20.8184C19.3483 20.9065 19.2833 21.0317 19.1764 21.1424C19.0091 21.3156 18.7884 21.4089 18.6367 21.4634C18.4621 21.526 18.258 21.5776 18.0405 21.6216C17.6035 21.7098 17.0464 21.7801 16.4216 21.8351C15.168 21.9456 13.5798 22 12 22C10.4202 22 8.83192 21.9456 7.57836 21.8352C6.95357 21.7801 6.39647 21.7099 5.9595 21.6216C5.74195 21.5776 5.53788 21.526 5.36326 21.4634C5.21157 21.4089 4.9909 21.3156 4.82357 21.1424C4.71669 21.0317 4.65166 20.9065 4.61234 20.8184C4.56947 20.7224 4.53512 20.6193 4.50666 20.5186C4.44974 20.3171 4.40209 20.073 4.36085 19.8044C4.27794 19.2644 4.21103 18.5581 4.15824 17.7522C4.05242 16.1363 4 14.0647 4 12C4 9.93531 4.05242 7.86369 4.15825 6.24782C4.21103 5.44184 4.27794 4.73564 4.36086 4.19559C4.40209 3.927 4.44974 3.6829 4.50666 3.48141C4.53512 3.38065 4.56947 3.27762 4.61234 3.18156C4.65166 3.09347 4.71669 2.96828 4.82357 2.85763C4.9909 2.68441 5.21157 2.59108 5.36326 2.53663C5.53788 2.47395 5.74195 2.42236 5.9595 2.37842C6.39647 2.29015 6.95356 2.2199 7.57836 2.16485C8.83191 2.05441 10.4202 2 12 2C13.5798 2 15.168 2.05441 16.4216 2.16485C17.0464 2.21989 17.6035 2.29015 18.0405 2.37841C18.258 2.42236 18.4621 2.47395 18.6367 2.53663ZM8.18684 9.42957H9.64478C9.69891 8.3866 9.87339 7.42959 10.1409 6.66878C9.13199 7.23139 8.3961 8.23767 8.18684 9.42957ZM12 4.7907C9.1032 4.7907 6.75491 7.17995 6.75491 10.1272C6.75491 13.0745 9.1032 15.4638 12 15.4638C14.8967 15.4638 17.245 13.0745 17.245 10.1272C17.245 7.17995 14.8967 4.7907 12 4.7907ZM12 6.18902C11.9792 6.19855 11.9318 6.22787 11.8592 6.31235C11.7319 6.46032 11.5861 6.71469 11.4499 7.08925C11.2322 7.68753 11.0725 8.49955 11.0183 9.42957H12.9816C12.9275 8.49955 12.7677 7.68753 12.5501 7.08925C12.4138 6.7147 12.268 6.46033 12.1408 6.31235C12.0681 6.22787 12.0207 6.19855 12 6.18902ZM14.3552 9.42957C14.301 8.3866 14.1266 7.42959 13.8591 6.66879C14.868 7.23139 15.6038 8.23767 15.8131 9.42957H14.3552ZM12.9816 10.8249H11.0183C11.0725 11.755 11.2322 12.567 11.4499 13.1653C11.5861 13.5398 11.7319 13.7942 11.8592 13.9421C11.9318 14.0266 11.9792 14.0559 12 14.0655C12.0207 14.0559 12.0681 14.0266 12.1408 13.9421C12.268 13.7942 12.4138 13.5398 12.5501 13.1653C12.7677 12.567 12.9275 11.755 12.9816 10.8249ZM10.1408 13.5857C9.87337 12.8249 9.6989 11.8679 9.64478 10.8249H8.18684C8.3961 12.0168 9.13197 13.0231 10.1408 13.5857ZM13.8591 13.5857C14.1266 12.8249 14.3011 11.8679 14.3552 10.8249H15.8131C15.6038 12.0168 14.868 13.0231 13.8591 13.5857ZM7.67981 17.615C7.7041 17.2305 8.03015 16.9388 8.40808 16.9635C10.5604 17.1042 13.4395 17.1042 15.5918 16.9635C15.9697 16.9388 16.2958 17.2305 16.32 17.615C16.3443 17.9995 16.0576 18.3313 15.6797 18.356C13.4689 18.5005 10.531 18.5005 8.32015 18.356C7.94222 18.3313 7.65553 17.9995 7.67981 17.615Z" fill="white"/>
</svg>
