<svg width="24" height="24" viewBox="0 0 24 24" fill="none" xmlns="http://www.w3.org/2000/svg">
<path fill-rule="evenodd" clip-rule="evenodd" d="M16.3354 2.69237C16.6796 2.33598 17.193 1.95231 17.8308 2.00485C18.321 2.04523 18.8264 2.28981 19.2695 2.59242C19.7279 2.90553 20.1881 3.3277 20.5945 3.8138C21.3904 4.76565 22.0756 6.08176 21.9933 7.42573C21.9514 8.10815 21.6838 8.85463 21.3179 9.59008C20.9466 10.3362 20.4471 11.1241 19.8884 11.9018C18.7707 13.4573 17.3806 15.0209 16.2009 16.2006C15.0212 17.3802 13.4576 18.7705 11.902 19.8882C11.1243 20.447 10.3363 20.9465 9.59014 21.3178C8.85467 21.6838 8.10816 21.9514 7.42573 21.9933C6.08176 22.0756 4.76565 21.3904 3.8138 20.5945C3.3277 20.1881 2.90553 19.7279 2.59242 19.2695C2.28981 18.8264 2.04524 18.321 2.00485 17.8308C1.95231 17.193 2.33598 16.6796 2.69237 16.3354C3.07066 15.97 3.56982 15.6474 4.06317 15.3788C5.05141 14.8407 6.17147 14.4367 6.68819 14.3033C7.53766 14.084 8.20423 14.6091 8.57311 14.9779C8.77566 15.1804 8.95012 15.3974 9.08431 15.5686C9.11404 15.6066 9.14066 15.6406 9.16458 15.6713C9.18182 15.6933 9.19767 15.7136 9.21228 15.7323C9.35435 15.6771 9.56638 15.5687 9.85515 15.3794C10.5427 14.9287 11.5321 14.1091 12.8208 12.8204C14.1094 11.5317 14.9289 10.5425 15.3795 9.85499C15.5688 9.56629 15.6772 9.35432 15.7323 9.2123C15.7137 9.19769 15.6934 9.18183 15.6713 9.16458C15.6406 9.14065 15.6066 9.11404 15.5686 9.08431C15.3974 8.95012 15.1804 8.77566 14.9779 8.57311C14.6091 8.20423 14.084 7.53766 14.3033 6.68819C14.4367 6.17147 14.8407 5.05141 15.3788 4.06317C15.6474 3.56981 15.97 3.07066 16.3354 2.69237ZM15.7775 9.05413C15.7775 9.05413 15.778 9.06013 15.775 9.07513C15.7753 9.06213 15.7775 9.05413 15.7775 9.05413ZM9.05406 15.7774C9.05406 15.7774 9.06207 15.7753 9.07508 15.775C9.06006 15.7779 9.05406 15.7774 9.05406 15.7774ZM16.6042 4.73044C16.1204 5.61907 15.7588 6.63225 15.6544 7.03695C15.6358 7.10889 15.6496 7.27142 15.9647 7.58661C16.1041 7.7261 16.2652 7.85742 16.4295 7.98616C16.4515 8.00342 16.4751 8.02174 16.4997 8.04085C16.6293 8.14151 16.787 8.26398 16.8915 8.36831C17.2756 8.75172 17.175 9.27386 17.0957 9.53641C16.9984 9.85858 16.8059 10.2243 16.5465 10.6199C16.0217 11.4206 15.128 12.4865 13.8074 13.8071C12.4868 15.1276 11.4209 16.0214 10.6201 16.5463C10.2244 16.8057 9.8587 16.9983 9.53652 17.0956C9.27403 17.1749 8.75178 17.2757 8.36831 16.8915C8.26398 16.787 8.14152 16.6293 8.04086 16.4997C8.02175 16.4751 8.00343 16.4515 7.98616 16.4295C7.85742 16.2652 7.7261 16.1041 7.58661 15.9647C7.27141 15.6496 7.10889 15.6358 7.03695 15.6544C6.63225 15.7588 5.61907 16.1204 4.73044 16.6042C4.28535 16.8466 3.91017 17.0991 3.66173 17.339C3.53871 17.4579 3.46582 17.5556 3.42742 17.6278C3.40908 17.6623 3.40121 17.6862 3.39792 17.6998C3.3963 17.7065 3.39576 17.7109 3.39558 17.7132C3.39539 17.7154 3.39548 17.7163 3.39548 17.7163C3.40715 17.8579 3.50085 18.1255 3.74465 18.4825C3.97795 18.8241 4.31033 19.1909 4.70883 19.5241C5.52618 20.2074 6.49947 20.6521 7.34038 20.6005C7.75039 20.5754 8.30075 20.4008 8.96856 20.0686C9.62568 19.7416 10.3474 19.287 11.0878 18.755C12.5684 17.6912 14.0746 16.3536 15.2142 15.2139C16.3539 14.0742 17.6915 12.5681 18.7552 11.0876C19.2871 10.3473 19.7417 9.6256 20.0686 8.96852C20.4009 8.30075 20.5754 7.7504 20.6005 7.34038C20.6521 6.49947 20.2074 5.52618 19.5241 4.70883C19.1909 4.31033 18.8241 3.97795 18.4825 3.74465C18.1255 3.50085 17.8579 3.40715 17.7163 3.39548C17.7163 3.39548 17.7154 3.39539 17.7132 3.39558C17.7109 3.39576 17.7065 3.3963 17.6998 3.39792C17.6862 3.40121 17.6623 3.40908 17.6278 3.42742C17.5555 3.46582 17.4579 3.53871 17.339 3.66173C17.0991 3.91016 16.8466 4.28535 16.6042 4.73044Z" fill="white"/>
</svg>
