<svg width="24" height="24" viewBox="0 0 24 24" fill="none" xmlns="http://www.w3.org/2000/svg">
<path fill-rule="evenodd" clip-rule="evenodd" d="M12 15C14.4853 15 16.5 12.9853 16.5 10.5C16.5 8.01472 14.4853 6 12 6C9.51472 6 7.5 8.01472 7.5 10.5C7.5 12.9853 9.51472 15 12 15ZM12 13.6C13.7121 13.6 15.1 12.2121 15.1 10.5C15.1 8.78792 13.7121 7.4 12 7.4C10.2879 7.4 8.9 8.78792 8.9 10.5C8.9 12.2121 10.2879 13.6 12 13.6Z" fill="white"/>
<path fill-rule="evenodd" clip-rule="evenodd" d="M12 22C17.5228 22 22 17.5228 22 12C22 6.47715 17.5228 2 12 2C6.47715 2 2 6.47715 2 12C2 17.5228 6.47715 22 12 22ZM12 20.6C14.1977 20.6 16.2029 19.7756 17.7232 18.4192C16.3147 17.8095 14.2968 17.4 12 17.4C9.70325 17.4 7.6853 17.8095 6.27682 18.4192C7.7971 19.7756 9.80228 20.6 12 20.6ZM5.26399 17.3471C4.09711 15.8791 3.4 14.021 3.4 12C3.4 7.25035 7.25035 3.4 12 3.4C16.7496 3.4 20.6 7.25035 20.6 12C20.6 14.021 19.9029 15.8791 18.736 17.3471C17.0872 16.5208 14.6805 16 12 16C9.31953 16 6.91276 16.5208 5.26399 17.3471Z" fill="white"/>
</svg>
