<svg width="24" height="24" viewBox="0 0 24 24" fill="none" xmlns="http://www.w3.org/2000/svg">
<path fill-rule="evenodd" clip-rule="evenodd" d="M11.7825 1.60647C13.1632 1.60608 14.0558 1.60582 14.8694 1.94284C15.683 2.27986 16.314 2.91121 17.29 3.88777L19.6478 6.24549C20.6243 7.22148 21.2557 7.85248 21.5927 8.66612C21.9297 9.47976 21.9294 10.3724 21.9291 11.7531L21.929 13.5195C21.929 15.2289 21.929 16.5831 21.7866 17.6428C21.6399 18.7334 21.331 19.6161 20.6348 20.3123C19.9387 21.0084 19.056 21.3174 17.9653 21.464C16.9056 21.6065 15.5516 21.6065 13.8421 21.6064H10.0161C8.3066 21.6065 6.95247 21.6065 5.89277 21.464C4.80215 21.3174 3.9194 21.0084 3.22326 20.3123C2.52711 19.6161 2.21816 18.7334 2.07153 17.6428C1.92905 16.583 1.92906 15.229 1.92908 13.5194V9.69351C1.92906 7.98399 1.92905 6.62991 2.07153 5.57019C2.21816 4.47957 2.52711 3.59683 3.22326 2.90068C3.9194 2.20453 4.80215 1.89558 5.89277 1.74895C6.9525 1.60647 8.30657 1.60648 10.0161 1.6065L11.7825 1.60647ZM15.5956 15.7214C15.5956 17.7464 13.9541 19.388 11.929 19.388C9.90404 19.388 8.26245 17.7464 8.26245 15.7214C8.26245 13.6964 9.90404 12.0548 11.929 12.0548C13.9541 12.0548 15.5956 13.6964 15.5956 15.7214ZM5.57632 5.63485C5.45605 5.85737 5.45605 6.15199 5.45605 6.74121C5.45605 7.33044 5.45605 7.62505 5.57632 7.84757C5.66886 8.0188 5.80936 8.15929 5.98058 8.25183C6.20311 8.3721 6.49772 8.3721 7.08695 8.3721H12.5355C13.1247 8.3721 13.4193 8.3721 13.6419 8.25183C13.8131 8.15929 13.9536 8.0188 14.0461 7.84757C14.1664 7.62505 14.1664 7.33044 14.1664 6.74121C14.1664 6.15199 14.1664 5.85737 14.0461 5.63485C13.9536 5.46363 13.8131 5.32313 13.6419 5.23059C13.4193 5.11032 13.1247 5.11032 12.5355 5.11032H7.08695C6.49772 5.11032 6.20311 5.11032 5.98058 5.23059C5.80936 5.32313 5.66886 5.46363 5.57632 5.63485Z" fill="#F2F6F9"/>
</svg>
