<svg width="24" height="24" viewBox="0 0 24 24" fill="none" xmlns="http://www.w3.org/2000/svg">
<path fill-rule="evenodd" clip-rule="evenodd" d="M15.5716 6.73769C13.1308 4.29691 9.17352 4.29691 6.73274 6.73769C4.29197 9.17846 4.29197 13.1357 6.73274 15.5765C9.17352 18.0173 13.1308 18.0173 15.5716 15.5765C18.0124 13.1357 18.0124 9.17846 15.5716 6.73769ZM5.67208 5.67703C8.69865 2.65046 13.6057 2.65046 16.6322 5.67703C19.2922 8.33695 19.6144 12.4493 17.5989 15.4612L20.1561 18.0183C20.7447 18.6069 20.7451 19.5611 20.157 20.1503C19.5682 20.7402 18.6125 20.7406 18.0231 20.1512L15.4679 17.596C12.455 19.6202 8.33545 19.3005 5.67208 16.6372C2.64552 13.6106 2.64552 8.70359 5.67208 5.67703Z" fill="white"/>
</svg>
