<svg width="24" height="24" viewBox="0 0 24 24" fill="none" xmlns="http://www.w3.org/2000/svg">
<path fill-rule="evenodd" clip-rule="evenodd" d="M11.0826 3.65138C6.97844 3.65138 3.65138 6.97844 3.65138 11.0826C3.65138 15.1867 6.97844 18.5138 11.0826 18.5138C13.1349 18.5138 14.9915 17.6829 16.3372 16.3372C17.6829 14.9915 18.5138 13.1349 18.5138 11.0826C18.5138 6.97844 15.1867 3.65138 11.0826 3.65138ZM2 11.0826C2 6.06641 6.06641 2 11.0826 2C16.0987 2 20.1651 6.06641 20.1651 11.0826C20.1651 13.293 19.3747 15.3201 18.0623 16.8946L21.7582 20.5905C22.0806 20.9129 22.0806 21.4357 21.7582 21.7582C21.4357 22.0806 20.9129 22.0806 20.5905 21.7582L16.8946 18.0623C15.3201 19.3747 13.293 20.1651 11.0826 20.1651C6.06641 20.1651 2 16.0987 2 11.0826Z" fill="white"/>
</svg>
