<svg width="24" height="24" viewBox="0 0 24 24" fill="none" xmlns="http://www.w3.org/2000/svg">
<path fill-rule="evenodd" clip-rule="evenodd" d="M3.63025 8.1302C3.63025 5.73542 5.57161 3.79407 7.96639 3.79407C8.35623 3.79407 8.67227 4.1101 8.67227 4.49995C8.67227 4.8898 8.35623 5.20583 7.96639 5.20583C6.3513 5.20583 5.04202 6.51512 5.04202 8.1302C5.04202 9.34818 5.78681 10.3939 6.84853 10.8335C7.20872 10.9827 7.37981 11.3956 7.23066 11.7558C7.08151 12.1159 6.66861 12.287 6.30842 12.1379C4.7375 11.4874 3.63025 9.93893 3.63025 8.1302ZM15.3277 4.49995C15.3277 4.1101 15.6438 3.79407 16.0336 3.79407C18.4284 3.79407 20.3697 5.73542 20.3697 8.1302C20.3697 9.93893 19.2625 11.4874 17.6916 12.1379C17.3314 12.287 16.9185 12.1159 16.7693 11.7558C16.6202 11.3956 16.7913 10.9827 17.1515 10.8335C18.2132 10.3939 18.958 9.34818 18.958 8.1302C18.958 6.51512 17.6487 5.20583 16.0336 5.20583C15.6438 5.20583 15.3277 4.8898 15.3277 4.49995ZM12 6.01255C10.3849 6.01255 9.07563 7.32184 9.07563 8.93692C9.07563 10.552 10.3849 11.8613 12 11.8613C13.6151 11.8613 14.9244 10.552 14.9244 8.93692C14.9244 7.32184 13.6151 6.01255 12 6.01255ZM7.66387 8.93692C7.66387 6.54214 9.60522 4.60079 12 4.60079C14.3948 4.60079 16.3361 6.54214 16.3361 8.93692C16.3361 11.3317 14.3948 13.2731 12 13.2731C9.60522 13.2731 7.66387 11.3317 7.66387 8.93692ZM5.43491 14.1595C5.50181 14.5436 5.2447 14.9092 4.86063 14.9761C3.72124 15.1746 2.85319 15.5097 2.28001 15.9908C1.73833 16.4455 1.41176 17.0691 1.41176 17.9991C1.41176 18.0839 1.43396 18.1603 1.56891 18.2658C1.73137 18.3928 2.02252 18.5261 2.48655 18.6393C2.8653 18.7316 3.09747 19.1135 3.00512 19.4923C2.91276 19.871 2.53086 20.1032 2.15211 20.0109C1.60708 19.878 1.09152 19.6845 0.699516 19.3781C0.279998 19.0502 0 18.5867 0 17.9991C0 16.6735 0.494903 15.646 1.37237 14.9095C2.21832 14.1994 3.36708 13.8032 4.61836 13.5853C5.00243 13.5184 5.36801 13.7755 5.43491 14.1595ZM18.5651 14.1595C18.632 13.7755 18.9976 13.5184 19.3816 13.5853C20.6329 13.8032 21.7817 14.1994 22.6276 14.9095C23.5051 15.646 24 16.6735 24 17.9991C24 18.5867 23.72 19.0502 23.3005 19.3781C22.9085 19.6845 22.3929 19.878 21.8479 20.0109C21.4691 20.1032 21.0872 19.871 20.9949 19.4923C20.9025 19.1135 21.1347 18.7316 21.5135 18.6393C21.9775 18.5261 22.2686 18.3928 22.4311 18.2658C22.566 18.1603 22.5882 18.0839 22.5882 17.9991C22.5882 17.0691 22.2617 16.4455 21.72 15.9908C21.1468 15.5097 20.2788 15.1746 19.1394 14.9761C18.7553 14.9092 18.4982 14.5436 18.5651 14.1595ZM5.88631 17.2573C5.61355 17.6429 5.44538 18.1397 5.44538 18.8058C5.44538 18.8924 5.46677 18.9926 5.68686 19.1315C5.93719 19.2895 6.36044 19.4332 6.98705 19.5422C8.23067 19.7586 9.9841 19.7941 12 19.7941C14.0159 19.7941 15.7693 19.7586 17.013 19.5422C17.6396 19.4332 18.0628 19.2895 18.3131 19.1315C18.5332 18.9926 18.5546 18.8924 18.5546 18.8058C18.5546 18.1397 18.3864 17.6429 18.1137 17.2573C17.8368 16.8659 17.418 16.5416 16.8441 16.2832C15.6734 15.756 13.9849 15.5588 12 15.5588C10.0151 15.5588 8.32656 15.756 7.15587 16.2832C6.58198 16.5416 6.16322 16.8659 5.88631 17.2573ZM6.57622 14.9959C8.03332 14.3398 9.97499 14.147 12 14.147C14.025 14.147 15.9667 14.3398 17.4238 14.9959C18.1638 15.3291 18.8083 15.7947 19.2662 16.442C19.7282 17.095 19.9664 17.8855 19.9664 18.8058C19.9664 19.499 19.5814 20.0004 19.0667 20.3253C18.5823 20.6311 17.9422 20.8135 17.255 20.9331C15.8708 21.1739 13.994 21.2058 12 21.2058C10.006 21.2058 8.12921 21.1739 6.74505 20.9331C6.05776 20.8135 5.41773 20.6311 4.93327 20.3253C4.41855 20.0004 4.03361 19.499 4.03361 18.8058C4.03361 17.8855 4.27177 17.095 4.73381 16.442C5.19171 15.7947 5.83622 15.3291 6.57622 14.9959Z" fill="#F2F6F9"/>
</svg>
