<svg width="24" height="24" viewBox="0 0 24 24" fill="none" xmlns="http://www.w3.org/2000/svg">
<path d="M3.63025 8.13032C3.63025 5.73554 5.57161 3.79419 7.96639 3.79419C8.35623 3.79419 8.67227 4.11022 8.67227 4.50007C8.67227 4.88992 8.35623 5.20595 7.96639 5.20595C6.3513 5.20595 5.04202 6.51524 5.04202 8.13032C5.04202 9.34831 5.78681 10.394 6.84853 10.8336C7.20872 10.9828 7.37981 11.3957 7.23066 11.7559C7.08151 12.1161 6.66861 12.2871 6.30842 12.138C4.7375 11.4875 3.63025 9.93905 3.63025 8.13032Z" fill="#F2F6F9"/>
<path d="M15.3277 4.50007C15.3277 4.11022 15.6438 3.79419 16.0336 3.79419C18.4284 3.79419 20.3697 5.73554 20.3697 8.13032C20.3697 9.93905 19.2625 11.4875 17.6916 12.138C17.3314 12.2871 16.9185 12.1161 16.7693 11.7559C16.6202 11.3957 16.7913 10.9828 17.1515 10.8336C18.2132 10.394 18.958 9.34831 18.958 8.13032C18.958 6.51524 17.6487 5.20595 16.0336 5.20595C15.6438 5.20595 15.3277 4.88992 15.3277 4.50007Z" fill="#F2F6F9"/>
<path d="M7.66387 8.93705C7.66387 6.54226 9.60522 4.60091 12 4.60091C14.3948 4.60091 16.3361 6.54226 16.3361 8.93705C16.3361 11.3318 14.3948 13.2732 12 13.2732C9.60522 13.2732 7.66387 11.3318 7.66387 8.93705Z" fill="#F2F6F9"/>
<path d="M5.43491 14.1597C5.50181 14.5437 5.2447 14.9093 4.86063 14.9762C3.72124 15.1747 2.85319 15.5099 2.28001 15.991C1.73833 16.4456 1.41176 17.0692 1.41176 17.9992C1.41176 18.084 1.43396 18.1605 1.56891 18.2659C1.73137 18.3929 2.02252 18.5263 2.48655 18.6394C2.8653 18.7318 3.09747 19.1137 3.00512 19.4924C2.91276 19.8712 2.53086 20.1033 2.15211 20.011C1.60708 19.8781 1.09152 19.6846 0.699516 19.3783C0.279998 19.0504 0 18.5869 0 17.9992C0 16.6736 0.494903 15.6462 1.37237 14.9096C2.21832 14.1996 3.36708 13.8034 4.61836 13.5854C5.00243 13.5185 5.36801 13.7756 5.43491 14.1597Z" fill="#F2F6F9"/>
<path d="M18.5651 14.1597C18.632 13.7756 18.9976 13.5185 19.3816 13.5854C20.6329 13.8034 21.7817 14.1996 22.6276 14.9096C23.5051 15.6462 24 16.6736 24 17.9992C24 18.5869 23.72 19.0504 23.3005 19.3783C22.9085 19.6846 22.3929 19.8781 21.8479 20.011C21.4691 20.1033 21.0872 19.8712 20.9949 19.4924C20.9025 19.1137 21.1347 18.7318 21.5135 18.6394C21.9775 18.5263 22.2686 18.3929 22.4311 18.2659C22.566 18.1605 22.5882 18.084 22.5882 17.9992C22.5882 17.0692 22.2617 16.4456 21.72 15.991C21.1468 15.5099 20.2788 15.1747 19.1394 14.9762C18.7553 14.9093 18.4982 14.5437 18.5651 14.1597Z" fill="#F2F6F9"/>
<path d="M6.57622 14.996C8.03332 14.3399 9.97499 14.1471 12 14.1471C14.025 14.1471 15.9667 14.3399 17.4238 14.996C18.1638 15.3292 18.8083 15.7949 19.2662 16.4421C19.7282 17.0952 19.9664 17.8856 19.9664 18.806C19.9664 19.4991 19.5814 20.0005 19.0667 20.3254C18.5823 20.6312 17.9422 20.8136 17.255 20.9332C15.8708 21.174 13.994 21.206 12 21.206C10.006 21.206 8.12921 21.174 6.74505 20.9332C6.05776 20.8136 5.41773 20.6312 4.93327 20.3254C4.41855 20.0005 4.03361 19.4991 4.03361 18.806C4.03361 17.8856 4.27177 17.0952 4.73381 16.4421C5.19171 15.7949 5.83622 15.3292 6.57622 14.996Z" fill="#F2F6F9"/>
</svg>
