<svg width="24" height="24" viewBox="0 0 24 24" fill="none" xmlns="http://www.w3.org/2000/svg">
<path fill-rule="evenodd" clip-rule="evenodd" d="M12 7.08784C10.1932 7.08784 8.61468 8.07437 7.76921 9.54449C7.35409 10.2663 7.11628 11.1042 7.11628 12.0001C7.11628 12.896 7.35409 13.7339 7.76921 14.4557C8.61468 15.9259 10.1932 16.9124 12 16.9124C13.8068 16.9124 15.3853 15.9259 16.2308 14.4557C16.6459 13.7339 16.8837 12.896 16.8837 12.0001C16.8837 11.1042 16.6459 10.2663 16.2308 9.54449C15.3853 8.07437 13.8068 7.08784 12 7.08784ZM6.7283 8.56782C7.84643 6.83369 9.7894 5.68433 12 5.68433C14.2106 5.68433 16.1536 6.83369 17.2717 8.56782L20.7039 9.28664C21.4589 9.44476 22 10.114 22 10.8897V13.1105C22 13.8862 21.4589 14.5555 20.7039 14.7136L17.2717 15.4324C16.1536 17.1665 14.2106 18.3159 12 18.3159C9.7894 18.3159 7.84643 17.1665 6.7283 15.4324L3.29607 14.7136C2.54109 14.5555 2 13.8862 2 13.1105V10.8897C2 10.114 2.54109 9.44476 3.29607 9.28664L6.7283 8.56782ZM5.9932 10.1554L3.5805 10.6607C3.47265 10.6833 3.39535 10.7789 3.39535 10.8897V13.1105C3.39535 13.2214 3.47265 13.317 3.5805 13.3396L5.9932 13.8449C5.81614 13.2609 5.72093 12.6414 5.72093 12.0001C5.72093 11.3589 5.81614 10.7393 5.9932 10.1554ZM18.0068 13.8449L20.4195 13.3396C20.5274 13.317 20.6047 13.2214 20.6047 13.1105V10.8897C20.6047 10.7789 20.5274 10.6833 20.4195 10.6607L18.0068 10.1554C18.1839 10.7393 18.2791 11.3589 18.2791 12.0001C18.2791 12.6414 18.1839 13.2609 18.0068 13.8449ZM12 8.02351C12.3853 8.02351 12.6977 8.33769 12.6977 8.72526V11.7094L13.8887 12.9074C14.1611 13.1815 14.1611 13.6258 13.8887 13.8998C13.6162 14.1739 13.1745 14.1739 12.902 13.8998L11.3023 12.2908V8.72526C11.3023 8.33769 11.6147 8.02351 12 8.02351Z" fill="#F2F6F9"/>
</svg>
